<svg width="24" height="24" viewBox="0 0 24 24" fill="none" xmlns="http://www.w3.org/2000/svg">
<g id="cake" clip-path="url(#clip0_1_1681)">
<path id="Vector" d="M12.6297 6.33335C13.2779 6.11113 13.7593 5.50002 13.8334 4.81483C13.8797 4.37965 13.7871 3.97224 13.5742 3.63891L12.389 1.58335C12.213 1.2778 11.7686 1.2778 11.5834 1.58335L10.3982 3.63891C10.2408 3.91669 10.1482 4.24076 10.1482 4.59261C10.1482 5.81483 11.3519 6.76854 12.6297 6.33335ZM16.1945 15.6296L15.2686 14.7037L14.2686 15.6945C13.0649 16.8982 10.9538 16.9074 9.74082 15.6945L8.75008 14.7037L7.74082 15.6945C7.13897 16.2963 6.33341 16.6296 5.48156 16.6296C4.80564 16.6296 4.18527 16.4167 3.66675 16.0648V19.4074C3.66675 20.4259 4.50008 21.2593 5.5186 21.2593H18.4816C19.5001 21.2593 20.3334 20.4259 20.3334 19.4074V16.0648C19.639 16.5371 18.7501 16.7593 17.7964 16.5463C17.1853 16.4167 16.639 16.0741 16.1945 15.6296ZM17.5556 9.22224H12.926V8.29632C12.926 7.78706 12.5093 7.37039 12.0001 7.37039C11.4908 7.37039 11.0742 7.78706 11.0742 8.29632V9.22224H6.44453C4.90749 9.22224 3.66675 10.463 3.66675 12V13.3519C3.66675 14.1389 4.12971 14.8982 4.87971 15.1482C5.55564 15.3704 6.28712 15.2037 6.75934 14.7222L8.74082 12.75L10.713 14.7222C11.4167 15.4259 12.5742 15.4259 13.2779 14.7222L15.2593 12.75L17.2316 14.7222C17.6297 15.1204 18.1853 15.3056 18.7593 15.2315C19.676 15.1111 20.3242 14.25 20.3242 13.3241V12.0093C20.3334 10.463 19.0927 9.22224 17.5556 9.22224Z" fill="#00B346"/>
</g>
<defs>
<clipPath id="clip0_1_1681">
<rect width="22.2222" height="22.2222" fill="white" transform="translate(0.888916 0.888916)"/>
</clipPath>
</defs>
</svg>
