<svg width="28" height="28" viewBox="0 0 28 28" fill="none" xmlns="http://www.w3.org/2000/svg">
<circle cx="14" cy="14" r="13" fill="#00B346" stroke="white" stroke-width="2"/>
<g clip-path="url(#clip0_1_7472)">
<path d="M7.875 11C7.875 11.3438 8.15625 11.625 8.5 11.625C8.84375 11.625 9.125 11.3438 9.125 11V9.75H10.375C10.7188 9.75 11 9.46875 11 9.125C11 8.78125 10.7188 8.5 10.375 8.5H9.125V7.25C9.125 6.90625 8.84375 6.625 8.5 6.625C8.15625 6.625 7.875 6.90625 7.875 7.25V8.5H6.625C6.28125 8.5 6 8.78125 6 9.125C6 9.46875 6.28125 9.75 6.625 9.75H7.875V11Z" fill="white"/>
<path d="M14.125 16.625C15.1605 16.625 16 15.7855 16 14.75C16 13.7145 15.1605 12.875 14.125 12.875C13.0895 12.875 12.25 13.7145 12.25 14.75C12.25 15.7855 13.0895 16.625 14.125 16.625Z" fill="white"/>
<path d="M19.125 9.75H17.1437L16.3687 8.90625C16.1375 8.65 15.8 8.5 15.45 8.5H11.45C11.5562 8.6875 11.625 8.89375 11.625 9.125C11.625 9.8125 11.0625 10.375 10.375 10.375H9.75V11C9.75 11.6875 9.1875 12.25 8.5 12.25C8.26875 12.25 8.0625 12.1813 7.875 12.075V18.5C7.875 19.1875 8.4375 19.75 9.125 19.75H19.125C19.8125 19.75 20.375 19.1875 20.375 18.5V11C20.375 10.3125 19.8125 9.75 19.125 9.75ZM14.125 17.875C12.4 17.875 11 16.475 11 14.75C11 13.025 12.4 11.625 14.125 11.625C15.85 11.625 17.25 13.025 17.25 14.75C17.25 16.475 15.85 17.875 14.125 17.875Z" fill="white"/>
</g>
<defs>
<clipPath id="clip0_1_7472">
<rect width="15" height="15" fill="white" transform="translate(6 6)"/>
</clipPath>
</defs>
</svg>
