<svg width="24" height="24" viewBox="0 0 24 24" fill="none" xmlns="http://www.w3.org/2000/svg">
<g id="male">
<path id="Vector" d="M19.9895 4.01012C19.9836 4.00511 19.9756 4.00111 19.9717 3.9961C19.7043 3.7298 19.3338 3.62469 18.9912 3.68175L15.0275 3.73381C14.4006 3.74282 13.8994 4.2624 13.9074 4.89611C13.9153 5.52781 14.3897 5.99934 15.0563 6.02737L16.3834 6.01035L14.4412 7.97354C13.2864 7.11258 11.8958 6.64706 10.433 6.64706C8.62451 6.64706 6.92397 7.35886 5.64535 8.6513C3.00689 11.3193 3.00689 15.6611 5.64535 18.3291C6.92397 19.6216 8.62451 20.3334 10.433 20.3334C12.2405 20.3334 13.942 19.6216 15.2207 18.3291C17.558 15.9645 17.8284 12.2874 16.0239 9.62339L18.0631 7.56809V9.06877C18.0631 9.70248 18.5722 10.215 19.1982 10.215C19.8271 10.215 20.3332 9.70147 20.3332 9.06877V4.82403C20.3332 4.51969 20.2054 4.22536 19.9895 4.01012ZM13.6162 16.7073C11.9166 18.4252 8.95234 18.4252 7.25081 16.7073C5.4958 14.9343 5.4958 12.0471 7.25081 10.2731C8.10157 9.41415 9.23163 8.94063 10.434 8.94063C11.6373 8.94063 12.7654 9.41415 13.6182 10.2731C15.3722 12.0461 15.3722 14.9343 13.6162 16.7073Z" fill="#00B346"/>
</g>
</svg>
