<svg width="250" height="53" viewBox="0 0 250 53" fill="none" xmlns="http://www.w3.org/2000/svg">
<g filter="url(#filter0_d_1_7520)">
<g filter="url(#filter1_b_1_7520)">
<path d="M48 0H236C241.523 0 246 4.47715 246 10V35C246 40.5228 241.523 45 236 45H48V0Z" fill="url(#paint0_linear_1_7520)" fill-opacity="0.8"/>
<path d="M48.5 0.5H236C241.247 0.5 245.5 4.7533 245.5 10V35C245.5 40.2467 241.247 44.5 236 44.5H48.5V0.5Z" stroke="white"/>
</g>
<g filter="url(#filter2_b_1_7520)">
<path d="M4 10C4 4.47715 8.47715 0 14 0H49V45H14C8.47715 45 4 40.5228 4 35V10Z" fill="#00B346" fill-opacity="1"/>
<path d="M4.5 10C4.5 4.75329 8.75329 0.5 14 0.5H48.5V44.5H14C8.75329 44.5 4.5 40.2467 4.5 35V10Z" stroke="white"/>
</g>
</g>
<path d="M81.0575 18.2L76.8015 26.11C76.4282 26.81 75.9802 27.3373 75.4575 27.692C74.9442 28.0373 74.3842 28.21 73.7775 28.21C73.2922 28.21 72.8115 28.1073 72.3355 27.902L72.7835 26.474C73.1662 26.5953 73.4835 26.656 73.7355 26.656C74.3235 26.656 74.8088 26.3527 75.1915 25.746L75.3455 25.508L71.4395 18.2H73.3855L76.2835 23.954L79.2655 18.2H81.0575ZM84.9686 28.098C84.194 28.098 83.4986 27.9347 82.8826 27.608C82.2666 27.2813 81.786 26.8287 81.4406 26.25C81.0953 25.662 80.9226 24.9993 80.9226 24.262C80.9226 23.5247 81.0953 22.8667 81.4406 22.288C81.786 21.7093 82.262 21.2567 82.8686 20.93C83.4846 20.6033 84.1846 20.44 84.9686 20.44C85.706 20.44 86.35 20.5893 86.9006 20.888C87.4606 21.1867 87.8806 21.616 88.1606 22.176L86.8166 22.96C86.602 22.6147 86.3313 22.358 86.0046 22.19C85.6873 22.0127 85.3373 21.924 84.9546 21.924C84.3013 21.924 83.76 22.1387 83.3306 22.568C82.9013 22.988 82.6866 23.5527 82.6866 24.262C82.6866 24.9713 82.8966 25.5407 83.3166 25.97C83.746 26.39 84.292 26.6 84.9546 26.6C85.3373 26.6 85.6873 26.516 86.0046 26.348C86.3313 26.1707 86.602 25.9093 86.8166 25.564L88.1606 26.348C87.8713 26.908 87.4466 27.342 86.8866 27.65C86.336 27.9487 85.6966 28.098 84.9686 28.098ZM96.8694 20.524V28H95.1334V22.008H91.4514V28H89.7014V20.524H96.8694ZM106.231 24.304C106.231 24.4253 106.221 24.598 106.203 24.822H100.337C100.439 25.3727 100.705 25.8113 101.135 26.138C101.573 26.4553 102.115 26.614 102.759 26.614C103.58 26.614 104.257 26.3433 104.789 25.802L105.727 26.88C105.391 27.2813 104.966 27.5847 104.453 27.79C103.939 27.9953 103.361 28.098 102.717 28.098C101.895 28.098 101.172 27.9347 100.547 27.608C99.9214 27.2813 99.436 26.8287 99.0907 26.25C98.7547 25.662 98.5867 24.9993 98.5867 24.262C98.5867 23.534 98.75 22.8807 99.0767 22.302C99.4127 21.714 99.8747 21.2567 100.463 20.93C101.051 20.6033 101.713 20.44 102.451 20.44C103.179 20.44 103.827 20.6033 104.397 20.93C104.975 21.2473 105.423 21.7 105.741 22.288C106.067 22.8667 106.231 23.5387 106.231 24.304ZM102.451 21.84C101.891 21.84 101.415 22.008 101.023 22.344C100.64 22.6707 100.407 23.1093 100.323 23.66H104.565C104.49 23.1187 104.261 22.68 103.879 22.344C103.496 22.008 103.02 21.84 102.451 21.84ZM119.163 20.524V28H108.145V20.524H109.895V26.516H112.793V20.524H114.543V26.516H117.413V20.524H119.163ZM121.516 20.524H123.266V23.562H127.032V20.524H128.782V28H127.032V25.046H123.266V28H121.516V20.524ZM134.459 28.098C133.703 28.098 133.022 27.9347 132.415 27.608C131.809 27.2813 131.333 26.8287 130.987 26.25C130.651 25.662 130.483 24.9993 130.483 24.262C130.483 23.5247 130.651 22.8667 130.987 22.288C131.333 21.7093 131.809 21.2567 132.415 20.93C133.022 20.6033 133.703 20.44 134.459 20.44C135.225 20.44 135.911 20.6033 136.517 20.93C137.124 21.2567 137.595 21.7093 137.931 22.288C138.277 22.8667 138.449 23.5247 138.449 24.262C138.449 24.9993 138.277 25.662 137.931 26.25C137.595 26.8287 137.124 27.2813 136.517 27.608C135.911 27.9347 135.225 28.098 134.459 28.098ZM134.459 26.6C135.103 26.6 135.635 26.3853 136.055 25.956C136.475 25.5267 136.685 24.962 136.685 24.262C136.685 23.562 136.475 22.9973 136.055 22.568C135.635 22.1387 135.103 21.924 134.459 21.924C133.815 21.924 133.283 22.1387 132.863 22.568C132.453 22.9973 132.247 23.562 132.247 24.262C132.247 24.962 132.453 25.5267 132.863 25.956C133.283 26.3853 133.815 26.6 134.459 26.6ZM147.449 28.098C146.674 28.098 145.979 27.9347 145.363 27.608C144.747 27.2813 144.266 26.8287 143.921 26.25C143.576 25.662 143.403 24.9993 143.403 24.262C143.403 23.5247 143.576 22.8667 143.921 22.288C144.266 21.7093 144.742 21.2567 145.349 20.93C145.965 20.6033 146.665 20.44 147.449 20.44C148.186 20.44 148.83 20.5893 149.381 20.888C149.941 21.1867 150.361 21.616 150.641 22.176L149.297 22.96C149.082 22.6147 148.812 22.358 148.485 22.19C148.168 22.0127 147.818 21.924 147.435 21.924C146.782 21.924 146.24 22.1387 145.811 22.568C145.382 22.988 145.167 23.5527 145.167 24.262C145.167 24.9713 145.377 25.5407 145.797 25.97C146.226 26.39 146.772 26.6 147.435 26.6C147.818 26.6 148.168 26.516 148.485 26.348C148.812 26.1707 149.082 25.9093 149.297 25.564L150.641 26.348C150.352 26.908 149.927 27.342 149.367 27.65C148.816 27.9487 148.177 28.098 147.449 28.098ZM155.404 28.098C154.648 28.098 153.967 27.9347 153.36 27.608C152.754 27.2813 152.278 26.8287 151.932 26.25C151.596 25.662 151.428 24.9993 151.428 24.262C151.428 23.5247 151.596 22.8667 151.932 22.288C152.278 21.7093 152.754 21.2567 153.36 20.93C153.967 20.6033 154.648 20.44 155.404 20.44C156.17 20.44 156.856 20.6033 157.462 20.93C158.069 21.2567 158.54 21.7093 158.876 22.288C159.222 22.8667 159.394 23.5247 159.394 24.262C159.394 24.9993 159.222 25.662 158.876 26.25C158.54 26.8287 158.069 27.2813 157.462 27.608C156.856 27.9347 156.17 28.098 155.404 28.098ZM155.404 26.6C156.048 26.6 156.58 26.3853 157 25.956C157.42 25.5267 157.63 24.962 157.63 24.262C157.63 23.562 157.42 22.9973 157 22.568C156.58 22.1387 156.048 21.924 155.404 21.924C154.76 21.924 154.228 22.1387 153.808 22.568C153.398 22.9973 153.192 23.562 153.192 24.262C153.192 24.962 153.398 25.5267 153.808 25.956C154.228 26.3853 154.76 26.6 155.404 26.6ZM165.553 28L163.635 25.41L161.703 28H159.771L162.683 24.206L159.897 20.524H161.843L163.677 22.974L165.511 20.524H167.401L164.601 24.178L167.527 28H165.553ZM172.924 20.44C173.652 20.44 174.3 20.5987 174.87 20.916C175.448 21.2333 175.901 21.6813 176.228 22.26C176.554 22.8387 176.718 23.506 176.718 24.262C176.718 25.018 176.554 25.69 176.228 26.278C175.901 26.8567 175.448 27.3047 174.87 27.622C174.3 27.9393 173.652 28.098 172.924 28.098C171.916 28.098 171.118 27.762 170.53 27.09V30.716H168.78V20.524H170.446V21.504C170.735 21.1493 171.09 20.8833 171.51 20.706C171.939 20.5287 172.41 20.44 172.924 20.44ZM172.728 26.6C173.372 26.6 173.899 26.3853 174.31 25.956C174.73 25.5267 174.94 24.962 174.94 24.262C174.94 23.562 174.73 22.9973 174.31 22.568C173.899 22.1387 173.372 21.924 172.728 21.924C172.308 21.924 171.93 22.022 171.594 22.218C171.258 22.4047 170.992 22.6753 170.796 23.03C170.6 23.3847 170.502 23.7953 170.502 24.262C170.502 24.7287 170.6 25.1393 170.796 25.494C170.992 25.8487 171.258 26.124 171.594 26.32C171.93 26.5067 172.308 26.6 172.728 26.6ZM181.15 20.44C182.251 20.44 183.091 20.706 183.67 21.238C184.258 21.7607 184.552 22.554 184.552 23.618V28H182.9V27.09C182.685 27.4167 182.377 27.6687 181.976 27.846C181.584 28.014 181.108 28.098 180.548 28.098C179.988 28.098 179.498 28.0047 179.078 27.818C178.658 27.622 178.331 27.356 178.098 27.02C177.874 26.6747 177.762 26.2873 177.762 25.858C177.762 25.186 178.009 24.6493 178.504 24.248C179.008 23.8373 179.796 23.632 180.87 23.632H182.802V23.52C182.802 22.9973 182.643 22.596 182.326 22.316C182.018 22.036 181.556 21.896 180.94 21.896C180.52 21.896 180.104 21.9613 179.694 22.092C179.292 22.2227 178.952 22.4047 178.672 22.638L177.986 21.364C178.378 21.0653 178.849 20.8367 179.4 20.678C179.95 20.5193 180.534 20.44 181.15 20.44ZM180.912 26.824C181.35 26.824 181.738 26.726 182.074 26.53C182.419 26.3247 182.662 26.0353 182.802 25.662V24.794H180.996C179.988 24.794 179.484 25.1253 179.484 25.788C179.484 26.1053 179.61 26.3573 179.862 26.544C180.114 26.7307 180.464 26.824 180.912 26.824ZM186.717 20.524H188.467V23.562H192.233V20.524H193.983V28H192.233V25.046H188.467V28H186.717V20.524ZM203.328 24.304C203.328 24.4253 203.319 24.598 203.3 24.822H197.434C197.537 25.3727 197.803 25.8113 198.232 26.138C198.671 26.4553 199.212 26.614 199.856 26.614C200.678 26.614 201.354 26.3433 201.886 25.802L202.824 26.88C202.488 27.2813 202.064 27.5847 201.55 27.79C201.037 27.9953 200.458 28.098 199.814 28.098C198.993 28.098 198.27 27.9347 197.644 27.608C197.019 27.2813 196.534 26.8287 196.188 26.25C195.852 25.662 195.684 24.9993 195.684 24.262C195.684 23.534 195.848 22.8807 196.174 22.302C196.51 21.714 196.972 21.2567 197.56 20.93C198.148 20.6033 198.811 20.44 199.548 20.44C200.276 20.44 200.925 20.6033 201.494 20.93C202.073 21.2473 202.521 21.7 202.838 22.288C203.165 22.8667 203.328 23.5387 203.328 24.304ZM199.548 21.84C198.988 21.84 198.512 22.008 198.12 22.344C197.738 22.6707 197.504 23.1093 197.42 23.66H201.662C201.588 23.1187 201.359 22.68 200.976 22.344C200.594 22.008 200.118 21.84 199.548 21.84ZM205.242 20.524H206.992V23.562H210.758V20.524H212.508V28H210.758V25.046H206.992V28H205.242V20.524ZM218.186 28.098C217.43 28.098 216.748 27.9347 216.142 27.608C215.535 27.2813 215.059 26.8287 214.714 26.25C214.378 25.662 214.21 24.9993 214.21 24.262C214.21 23.5247 214.378 22.8667 214.714 22.288C215.059 21.7093 215.535 21.2567 216.142 20.93C216.748 20.6033 217.43 20.44 218.186 20.44C218.951 20.44 219.637 20.6033 220.244 20.93C220.85 21.2567 221.322 21.7093 221.658 22.288C222.003 22.8667 222.176 23.5247 222.176 24.262C222.176 24.9993 222.003 25.662 221.658 26.25C221.322 26.8287 220.85 27.2813 220.244 27.608C219.637 27.9347 218.951 28.098 218.186 28.098ZM218.186 26.6C218.83 26.6 219.362 26.3853 219.782 25.956C220.202 25.5267 220.412 24.962 220.412 24.262C220.412 23.562 220.202 22.9973 219.782 22.568C219.362 22.1387 218.83 21.924 218.186 21.924C217.542 21.924 217.01 22.1387 216.59 22.568C216.179 22.9973 215.974 23.562 215.974 24.262C215.974 24.962 216.179 25.5267 216.59 25.956C217.01 26.3853 217.542 26.6 218.186 26.6Z" fill="#383C45"/>
<g clip-path="url(#clip0_1_7520)">
<path d="M21.1769 22.1463L20.8246 21.794L20.4711 22.1451L19.3469 23.2613L18.9909 23.6149L19.3457 23.9697L23.7711 28.3951L24.1246 28.7486L24.4782 28.3951L33.9782 18.8951L34.3317 18.5415L33.9782 18.188L32.8619 17.0717L32.5086 16.7184L32.155 17.0716L24.1248 25.0942L21.1769 22.1463Z" fill="white" stroke="white"/>
</g>
<defs>
<filter id="filter0_d_1_7520" x="0" y="0" width="250" height="53" filterUnits="userSpaceOnUse" color-interpolation-filters="sRGB">
<feFlood flood-opacity="0" result="BackgroundImageFix"/>
<feColorMatrix in="SourceAlpha" type="matrix" values="0 0 0 0 0 0 0 0 0 0 0 0 0 0 0 0 0 0 127 0" result="hardAlpha"/>
<feOffset dy="4"/>
<feGaussianBlur stdDeviation="2"/>
<feComposite in2="hardAlpha" operator="out"/>
<feColorMatrix type="matrix" values="0 0 0 0 0 0 0 0 0 0 0 0 0 0 0 0 0 0 0.1 0"/>
<feBlend mode="normal" in2="BackgroundImageFix" result="effect1_dropShadow_1_7520"/>
<feBlend mode="normal" in="SourceGraphic" in2="effect1_dropShadow_1_7520" result="shape"/>
</filter>
<filter id="filter1_b_1_7520" x="32" y="-16" width="230" height="77" filterUnits="userSpaceOnUse" color-interpolation-filters="sRGB">
<feFlood flood-opacity="0" result="BackgroundImageFix"/>
<feGaussianBlur in="BackgroundImageFix" stdDeviation="8"/>
<feComposite in2="SourceAlpha" operator="in" result="effect1_backgroundBlur_1_7520"/>
<feBlend mode="normal" in="SourceGraphic" in2="effect1_backgroundBlur_1_7520" result="shape"/>
</filter>
<filter id="filter2_b_1_7520" x="-12" y="-16" width="77" height="77" filterUnits="userSpaceOnUse" color-interpolation-filters="sRGB">
<feFlood flood-opacity="0" result="BackgroundImageFix"/>
<feGaussianBlur in="BackgroundImageFix" stdDeviation="8"/>
<feComposite in2="SourceAlpha" operator="in" result="effect1_backgroundBlur_1_7520"/>
<feBlend mode="normal" in="SourceGraphic" in2="effect1_backgroundBlur_1_7520" result="shape"/>
</filter>
<linearGradient id="paint0_linear_1_7520" x1="147" y1="0" x2="147" y2="45" gradientUnits="userSpaceOnUse">
<stop stop-color="white" stop-opacity="0.5"/>
<stop offset="1" stop-color="white"/>
</linearGradient>
<clipPath id="clip0_1_7520">
<rect width="19" height="19" fill="white" transform="translate(17 13)"/>
</clipPath>
</defs>
</svg>
