<svg width="20" height="20" viewBox="0 0 20 20" fill="none" xmlns="http://www.w3.org/2000/svg">
<path d="M14.8913 7.93479H14.3478V5.86957C14.3478 3.59164 12.3978 1.73914 10 1.73914C7.60218 1.73914 5.65218 3.59164 5.65218 5.86957V7.93479H5.10871C4.21016 7.93479 3.47827 8.62939 3.47827 9.4837V16.712C3.47827 17.5663 4.21016 18.2609 5.10871 18.2609H14.8913C15.7899 18.2609 16.5217 17.5663 16.5217 16.712V9.4837C16.5217 8.62939 15.7899 7.93479 14.8913 7.93479ZM7.10146 5.86957C7.10146 4.35095 8.40146 3.11595 10 3.11595C11.5986 3.11595 12.8986 4.35095 12.8986 5.86957V7.93479H7.10146V5.86957ZM10.7246 13.2507V14.8188C10.7246 15.1988 10.4007 15.5073 10 15.5073C9.59929 15.5073 9.27537 15.1988 9.27537 14.8188V13.2507C8.84421 13.0118 8.55074 12.5726 8.55074 12.0652C8.55074 11.3059 9.20074 10.6884 10 10.6884C10.7993 10.6884 11.4493 11.3059 11.4493 12.0652C11.4493 12.5726 11.1558 13.0118 10.7246 13.2507Z" fill="#3445DE"/>
</svg>
