<svg width="20" height="20" viewBox="0 0 20 20" fill="none" xmlns="http://www.w3.org/2000/svg">
<path fill-rule="evenodd" clip-rule="evenodd" d="M18.3334 3.58331C15.428 3.12285 12.6185 2.19386 10.0167 0.833313C7.40026 2.18707 4.58096 3.11558 1.66675 3.58331V8.98156C1.66675 15.093 6.91397 18.1482 10.0001 19.1666C13.0862 18.1482 18.3334 15.093 18.3334 8.98156V3.58331ZM12.4546 9.36905L11.7046 10.1357C11.288 10.5607 10.988 10.9441 10.838 11.5441C10.7713 11.8107 10.7296 12.1107 10.7296 12.4941H9.06298V12.0774C9.06298 11.6941 9.12965 11.3274 9.24632 10.9857C9.41298 10.5024 9.68798 10.0691 10.038 9.71905L11.0713 8.66905C11.4546 8.30239 11.638 7.75239 11.5297 7.16905C11.4213 6.56905 10.9546 6.06072 10.3713 5.89405C9.44632 5.63572 8.58798 6.16072 8.31298 6.95239C8.21298 7.26072 7.95465 7.49405 7.62965 7.49405H7.37965C6.89632 7.49405 6.56298 7.02739 6.69632 6.56072C7.05465 5.33572 8.09632 4.40239 9.38798 4.20239C10.6547 4.00239 11.863 4.66072 12.613 5.70239C13.5963 7.06072 13.3046 8.51905 12.4546 9.36905ZM9.06298 15.8274H10.7296V14.1607H9.06298V15.8274Z" fill="#3445DE"/>
</svg>
