<svg width="20" height="20" viewBox="0 0 20 20" fill="none" xmlns="http://www.w3.org/2000/svg">
<path d="M10.0001 17.2072C10.0001 16.5852 9.49594 16.0811 8.87395 16.0811H3.919V3.91894H8.87395C9.49594 3.91894 10.0001 3.41476 10.0001 2.79281C10.0001 2.17087 9.49594 1.66669 8.87395 1.66669H3.69377C2.57428 1.66669 1.66675 2.57422 1.66675 3.69371V16.3063C1.66675 17.4258 2.57428 18.3334 3.69377 18.3334H8.87395C9.49594 18.3334 10.0001 17.8292 10.0001 17.2072Z" fill="#DE4A4A"/>
<path d="M12.7028 12.912L14.4886 11.1262H7.52261C6.90067 11.1262 6.39648 10.6221 6.39648 10.0001C6.39648 9.3781 6.90067 8.87395 7.52261 8.87395H14.4886L12.7027 7.08812C12.263 6.64835 12.263 5.93532 12.7027 5.49555C13.1426 5.05576 13.8555 5.05576 14.2954 5.49555L18.0036 9.20377C18.2148 9.41494 18.3335 9.70143 18.3335 10.0001C18.3335 10.2987 18.2148 10.5852 18.0036 10.7964L14.2954 14.5046C13.8556 14.9443 13.1426 14.9443 12.7028 14.5046C12.263 14.0648 12.263 13.3518 12.7028 12.912Z" fill="#DE4A4A"/>
</svg>
