<svg width="20" height="20" viewBox="0 0 20 20" fill="none" xmlns="http://www.w3.org/2000/svg">
<g clip-path="url(#clip0_1_1721)">
<path d="M10.0001 1.66669C5.40008 1.66669 1.66675 5.40002 1.66675 10C1.66675 14.6 5.40008 18.3334 10.0001 18.3334C14.6001 18.3334 18.3334 14.6 18.3334 10C18.3334 5.40002 14.6001 1.66669 10.0001 1.66669ZM10.8334 15.8334H9.16675V14.1667H10.8334V15.8334ZM12.5584 9.37502L11.8084 10.1417C11.3917 10.5667 11.0917 10.95 10.9417 11.55C10.8751 11.8167 10.8334 12.1167 10.8334 12.5H9.16675V12.0834C9.16675 11.7 9.23341 11.3334 9.35008 10.9917C9.51675 10.5084 9.79175 10.075 10.1417 9.72502L11.1751 8.67502C11.5584 8.30835 11.7417 7.75835 11.6334 7.17502C11.5251 6.57502 11.0584 6.06669 10.4751 5.90002C9.55008 5.64169 8.69175 6.16669 8.41675 6.95835C8.31675 7.26669 8.05841 7.50002 7.73341 7.50002H7.48341C7.00008 7.50002 6.66675 7.03335 6.80008 6.56669C7.15841 5.34169 8.20008 4.40835 9.49175 4.20835C10.7584 4.00835 11.9667 4.66669 12.7167 5.70835C13.7001 7.06669 13.4084 8.52502 12.5584 9.37502Z" fill="#00B346"/>
</g>
<defs>
<clipPath id="clip0_1_1721">
<rect width="20" height="20" fill="white"/>
</clipPath>
</defs>
</svg>
