<svg width="200" height="153" viewBox="0 0 200 153" fill="none" xmlns="http://www.w3.org/2000/svg">
<g id="akchalai_white_vertical_rgb 1">
<g id="&#208;&#161;&#208;&#187;&#208;&#190;&#208;&#185;_x0020_1">
<g id="_2001075834912">
<path id="Vector" fill-rule="evenodd" clip-rule="evenodd" d="M99.9912 3.72998C118.061 3.72998 132.711 18.4 132.711 36.5C132.711 54.59 118.061 69.26 99.9912 69.26C81.9312 69.26 67.2812 54.59 67.2812 36.5C67.2812 18.4 81.9312 3.72998 99.9912 3.72998ZM87.5013 52.16V49.55H109.891C111.321 49.55 112.491 50.73 112.491 52.16V54.76H90.1012C88.6712 54.76 87.5013 53.59 87.5013 52.16ZM103.761 34.58C102.621 34.18 100.761 33.89 99.5513 33.89C97.3213 33.89 94.7812 34.74 94.7812 36.87C94.7812 39.1 96.9412 39.61 99.3412 39.41C102.181 39.17 103.761 37.47 103.761 34.58ZM86.2113 37.77C86.2113 35.95 86.7212 34.33 87.7412 32.93C88.7612 31.54 90.1713 30.44 91.9813 29.65C93.7913 28.85 95.8613 28.45 98.1813 28.45C99.2613 28.45 100.291 28.54 101.261 28.72C102.221 28.89 103.061 29.16 103.761 29.51V28.66C103.761 27.42 103.381 26.49 102.631 25.88C101.871 25.27 100.651 24.97 98.9713 24.97C92.2113 24.97 91.2513 30.25 87.4813 21.76C89.3413 20.56 91.3013 19.68 93.3512 19.1C95.4112 18.52 97.6113 18.23 99.9713 18.23C104.361 18.23 107.761 19.19 110.171 21.14C112.571 23.07 113.781 25.94 113.781 29.75V46.35C113.641 46.37 113.511 46.38 113.381 46.4C112.661 46.49 112.021 46.53 111.461 46.53C109.671 46.53 108.301 46.21 107.371 45.56C106.441 44.91 105.841 43.95 105.551 42.68L105.341 41.68C104.111 43.26 102.691 44.47 101.071 45.29C99.4613 46.12 97.7413 46.53 95.9113 46.53C94.0813 46.53 92.4312 46.15 90.9512 45.39C89.4812 44.63 88.3213 43.59 87.4813 42.25C86.6313 40.93 86.2113 39.43 86.2113 37.77Z" fill="white"/>
<path id="Vector_2" d="M194.111 93.71V117.49C191.381 117.49 189.431 117.49 186.691 117.49V114.91C185.791 115.88 184.711 116.62 183.451 117.13C182.201 117.65 180.861 117.9 179.441 117.9C176.241 117.9 173.691 116.97 171.801 115.09C169.911 113.22 168.971 110.41 168.971 106.66C168.971 102.08 168.981 97.5 168.971 92.93C177.851 92.93 177.551 91.87 177.531 98.45C177.521 100.73 177.481 103 177.511 105.25C177.571 108.79 178.961 110.56 181.711 110.56C185.291 110.56 186.071 107.84 186.071 104.81C186.071 101.13 186.071 97.45 186.071 93.77L194.111 93.71Z" fill="white"/>
<path id="Vector_3" d="M157.44 107.09C156.4 106.73 154.7 106.46 153.6 106.46C151.56 106.46 149.25 107.23 149.25 109.18C149.25 111.21 151.21 111.67 153.4 111.49C155.99 111.28 157.44 109.73 157.44 107.09ZM141.42 110C141.42 108.34 141.89 106.86 142.82 105.59C143.75 104.31 145.04 103.31 146.69 102.59C148.34 101.86 150.22 101.5 152.34 101.5C153.33 101.5 154.27 101.58 155.15 101.74C156.03 101.9 156.8 102.14 157.44 102.46V101.69C157.44 100.55 157.09 99.6999 156.4 99.1499C155.71 98.5999 154.6 98.3299 153.06 98.3299C146.89 98.3299 146.03 103.14 142.58 95.3899C144.28 94.2999 146.06 93.4899 147.94 92.9599C149.82 92.4399 151.83 92.1699 153.97 92.1699C157.98 92.1699 161.08 93.0499 163.28 94.8199C165.48 96.5899 166.57 99.2099 166.57 102.69V117.83C166.45 117.84 166.33 117.86 166.21 117.87C165.56 117.95 164.97 117.99 164.46 117.99C162.82 117.99 161.58 117.7 160.73 117.1C159.88 116.51 159.33 115.64 159.07 114.48L158.88 113.57C157.76 115.01 156.46 116.11 154.98 116.86C153.51 117.62 151.94 117.99 150.27 117.99C148.6 117.99 147.1 117.65 145.75 116.95C144.41 116.26 143.35 115.31 142.58 114.09C141.81 112.88 141.42 111.52 141.42 110Z" fill="white"/>
<path id="Vector_4" d="M139.292 98.9099V117.49C130.752 117.49 130.942 118.3 130.942 107.2V99.7699H125.522L125.342 103.53C125.222 106.73 124.902 109.37 124.392 111.46C123.872 113.54 123.032 115.17 121.852 116.33C120.672 117.49 119.062 118.07 117.002 118.07C116.222 118.07 115.262 117.97 114.132 117.76C114.132 109.17 113.832 114.45 116.412 111.22C118.092 108.83 118.012 96.4299 118.132 92.9299H132.852C138.652 92.9299 139.292 92.9499 139.292 98.9099Z" fill="white"/>
<path id="Vector_5" d="M33.75 117.51V92.9299C44.07 92.9299 42.7 91.0399 42.7 101.07C48.25 92.3799 50.53 92.9299 58.75 92.9299L49.72 104.63L59.55 117.51C48.97 117.51 48.69 118.15 42.7 108.8C42.7 119.29 44.33 117.51 33.75 117.51Z" fill="white"/>
<path id="Vector_6" d="M21.8909 107.09C20.8509 106.73 19.1509 106.46 18.0509 106.46C16.0109 106.46 13.7009 107.23 13.7009 109.18C13.7009 111.21 15.6609 111.67 17.8509 111.49C20.4509 111.28 21.8909 109.73 21.8909 107.09ZM5.88086 110C5.88086 108.34 6.34086 106.86 7.27086 105.59C8.20086 104.31 9.49086 103.31 11.1409 102.59C12.7909 101.86 14.6809 101.5 16.7909 101.5C17.7909 101.5 18.7209 101.58 19.6109 101.74C20.4909 101.9 21.2509 102.14 21.8909 102.46V101.69C21.8909 100.55 21.5509 99.6999 20.8609 99.1499C20.1709 98.5999 19.0509 98.3299 17.5109 98.3299C11.3509 98.3299 10.4809 103.14 7.03086 95.3899C8.73086 94.2999 10.5209 93.4899 12.3909 92.9599C14.2709 92.4399 16.2809 92.1699 18.4309 92.1699C22.4309 92.1699 25.5409 93.0499 27.7309 94.8199C29.9309 96.5899 31.0309 99.2099 31.0309 102.69V117.83C30.9009 117.84 30.7809 117.86 30.6709 117.87C30.0109 117.95 29.4209 117.99 28.9109 117.99C27.2809 117.99 26.0309 117.7 25.1809 117.1C24.3309 116.51 23.7809 115.64 23.5209 114.48L23.3309 113.57C22.2109 115.01 20.9109 116.11 19.4409 116.86C17.9609 117.62 16.3909 117.99 14.7209 117.99C13.0609 117.99 11.5509 117.65 10.2009 116.95C8.86086 116.26 7.80086 115.31 7.03086 114.09C6.26086 112.88 5.88086 111.52 5.88086 110Z" fill="white"/>
<path id="Vector_7" d="M102.51 107.09C101.47 106.73 99.7702 106.46 98.6702 106.46C96.6302 106.46 94.3202 107.23 94.3202 109.18C94.3202 111.21 96.2802 111.67 98.4702 111.49C101.06 111.28 102.51 109.73 102.51 107.09ZM86.4902 110C86.4902 108.34 86.9602 106.86 87.8902 105.59C88.8202 104.31 90.1102 103.31 91.7602 102.59C93.4102 101.86 95.2902 101.5 97.4102 101.5C98.4002 101.5 99.3402 101.58 100.22 101.74C101.11 101.9 101.87 102.14 102.51 102.46V101.69C102.51 100.55 102.16 99.6999 101.47 99.1499C100.78 98.5999 99.6702 98.3299 98.1302 98.3299C91.9602 98.3299 91.1002 103.14 87.6502 95.3899C89.3502 94.2999 91.1402 93.4899 93.0102 92.9599C94.8902 92.4399 96.9002 92.1699 99.0502 92.1699C103.05 92.1699 106.15 93.0499 108.35 94.8199C110.55 96.5899 111.64 99.2099 111.64 102.69V117.83C111.52 117.84 111.4 117.86 111.28 117.87C110.63 117.95 110.04 117.99 109.53 117.99C107.89 117.99 106.65 117.7 105.8 117.1C104.95 116.51 104.4 115.64 104.14 114.48L103.95 113.57C102.83 115.01 101.53 116.11 100.06 116.86C98.5802 117.62 97.0102 117.99 95.3402 117.99C93.6802 117.99 92.1702 117.65 90.8202 116.95C89.4802 116.26 88.4202 115.31 87.6502 114.09C86.8802 112.88 86.4902 111.52 86.4902 110Z" fill="white"/>
<path id="Vector_8" d="M75.1213 109.89C74.2413 110.27 73.3613 110.53 72.4913 110.67C71.6213 110.81 70.5913 110.88 69.3913 110.88C66.8913 110.88 64.8513 110.19 63.2513 108.8C61.6613 107.41 60.8613 105.42 60.8613 102.83V92.9299C68.3113 92.9299 69.8613 94.2699 69.8613 101.6C69.8613 102.44 70.0713 103.07 70.5013 103.51C70.9313 103.94 71.5713 104.15 72.4213 104.15C72.8613 104.15 73.3113 104.11 73.7713 104.03C74.2313 103.96 74.6813 103.83 75.1213 103.64C75.1213 91.6899 72.7613 92.9299 84.1213 92.9299V117.51C74.0413 117.51 75.1213 119.49 75.1213 109.89Z" fill="white"/>
<path id="Vector_9" fill-rule="evenodd" clip-rule="evenodd" d="M181.54 77.94C184.75 77.94 187.36 80.55 187.36 83.77C187.36 86.98 184.75 89.59 181.54 89.59C178.33 89.59 175.73 86.98 175.73 83.77C175.73 80.55 178.33 77.94 181.54 77.94Z" fill="white"/>
<path id="Vector_10" d="M190.842 140.04H194.112V143.73C191.482 143.73 190.842 142.81 190.842 140.04Z" fill="white"/>
<path id="Vector_11" d="M190.842 137.21V126.26C193.192 126.26 194.112 126.89 194.112 129.59V137.21H190.842Z" fill="white"/>
<path id="Vector_12" d="M169.83 138.31C169.45 138.16 169.04 138.05 168.62 137.96C168.18 137.88 167.74 137.83 167.32 137.83C166.65 137.83 165.82 137.99 165.22 138.38C164.78 138.68 164.48 139.11 164.48 139.73C164.48 140.27 164.71 140.69 165.07 140.98C165.5 141.33 166.1 141.51 166.69 141.52H166.73C167.41 141.52 168.17 141.14 168.77 140.55C169.38 139.96 169.81 139.16 169.83 138.33V138.31ZM161.25 140C161.25 139.58 161.31 139.19 161.43 138.82C161.55 138.45 161.72 138.11 161.96 137.8C162.2 137.48 162.48 137.2 162.81 136.96C163.14 136.72 163.51 136.51 163.93 136.34C164.35 136.17 164.8 136.04 165.28 135.96C165.76 135.87 166.27 135.83 166.81 135.83C167.35 135.83 167.96 135.87 168.55 135.96C169 136.04 169.44 136.15 169.83 136.31V135.72C169.83 134.94 169.6 134.34 169.13 133.92C168.9 133.71 168.6 133.55 168.26 133.45C167.91 133.34 167.5 133.29 167.03 133.29C165.99 133.29 165.25 133.63 164.66 133.91C163.58 134.41 162.96 134.7 161.92 132.54L161.89 132.5L161.94 132.47C162.36 132.19 162.8 131.95 163.23 131.74C163.67 131.53 164.11 131.35 164.56 131.21C165 131.07 165.46 130.97 165.93 130.9C166.4 130.83 166.88 130.8 167.37 130.8C168.29 130.8 169.11 130.91 169.83 131.13C170.54 131.36 171.16 131.7 171.68 132.16C172.19 132.62 172.58 133.17 172.84 133.82C173.1 134.47 173.23 135.22 173.23 136.06V143.91L173.16 143.92C172.22 144.05 171.5 143.94 170.98 143.57C170.49 143.22 170.18 142.64 170.07 141.84C169.49 142.57 168.94 143.11 168.29 143.47C167.6 143.85 166.81 144.04 165.76 144.04C165.33 144.04 164.93 144 164.54 143.91C164.15 143.82 163.79 143.69 163.45 143.52C163.11 143.34 162.8 143.13 162.53 142.89C162.26 142.65 162.03 142.37 161.84 142.07C161.45 141.46 161.25 140.76 161.25 140Z" fill="white"/>
<path id="Vector_13" d="M121.381 143.73V131.05C124.781 131.05 124.661 130.84 124.661 133.4V135.82C127.761 131.62 127.711 131.05 132.701 131.05L127.201 137.16L133.191 143.73C127.941 143.73 127.991 143.07 124.661 138.7V141.08C124.661 143.88 124.981 143.73 121.381 143.73Z" fill="white"/>
<path id="Vector_14" d="M109.911 137.43C109.911 138.16 110.061 138.81 110.351 139.38C110.641 139.95 111.041 140.39 111.551 140.71C112.051 141.03 112.621 141.19 113.261 141.19C113.881 141.19 114.441 141.03 114.951 140.7C115.451 140.37 115.851 139.93 116.151 139.36C116.461 138.79 116.611 138.14 116.611 137.41C116.611 136.68 116.461 136.04 116.151 135.46C115.851 134.89 115.451 134.44 114.951 134.12C114.441 133.8 113.881 133.64 113.261 133.64C112.621 133.64 112.051 133.8 111.551 134.13C111.041 134.46 110.641 134.91 110.351 135.47C110.061 136.04 109.911 136.69 109.911 137.43ZM113.261 143.98C112.221 143.98 111.281 143.8 110.451 143.46C109.621 143.11 108.911 142.63 108.331 142.02C107.761 141.41 107.311 140.71 107.001 139.92C106.691 139.13 106.541 138.3 106.541 137.43C106.541 136.54 106.691 135.71 107.001 134.92C107.311 134.13 107.761 133.43 108.331 132.81C108.911 132.2 109.621 131.72 110.451 131.38C111.281 131.03 112.221 130.86 113.261 130.86C114.301 130.86 115.231 131.03 116.061 131.38C116.881 131.72 117.581 132.2 118.171 132.81C118.761 133.43 119.201 134.13 119.501 134.92C119.801 135.71 119.951 136.54 119.951 137.43C119.951 138.3 119.801 139.13 119.501 139.92C119.201 140.71 118.761 141.41 118.181 142.02C117.601 142.63 116.901 143.11 116.071 143.46C115.241 143.8 114.301 143.98 113.261 143.98Z" fill="white"/>
<path id="Vector_15" d="M93.7012 143.73V131.05H105.181V143.73C101.781 143.73 101.911 143.07 101.911 139.68V133.91H96.9712V143.73H93.7012Z" fill="white"/>
<path id="Vector_16" d="M146.611 131.05V142.32C146.611 148.54 141.181 150.75 136.051 148.42C133.491 147.26 133.821 146.85 135.211 144.67C136.721 145.69 138.091 146.22 139.931 146.22C142.331 146.22 143.331 145.13 143.401 142.81C142.371 143.61 141.071 143.98 139.791 143.98C137.841 143.98 135.931 143.33 134.851 141.64C134.181 140.59 133.961 139.33 133.961 138.11V131.05C137.201 131.05 137.181 130.43 137.181 134.24V137.85C137.181 139.75 137.971 141 140.041 141C142.321 141 143.401 139.54 143.401 137.36V131.05H146.611Z" fill="white"/>
<path id="Vector_17" d="M42.7406 141.15C42.9206 141.15 43.0906 141.14 43.2606 141.12C43.4306 141.1 43.6006 141.07 43.7606 141.03C43.9106 140.99 44.0706 140.94 44.2206 140.88C44.3706 140.82 44.5106 140.74 44.6506 140.66C44.7906 140.58 44.9306 140.49 45.0506 140.4C45.1706 140.3 45.2906 140.2 45.4006 140.09C45.5006 139.98 45.6106 139.86 45.7006 139.73C45.7906 139.6 45.8806 139.46 45.9506 139.31C46.0306 139.17 46.1006 139.01 46.1606 138.86C46.2206 138.7 46.2706 138.53 46.3106 138.37C46.3406 138.2 46.3706 138.02 46.3906 137.84C46.4106 137.66 46.4206 137.47 46.4206 137.28C46.4206 137.09 46.4106 136.9 46.3906 136.72C46.3706 136.54 46.3406 136.36 46.3106 136.19C46.2706 136.02 46.2206 135.86 46.1606 135.7C46.1006 135.54 46.0306 135.39 45.9506 135.24C45.8806 135.1 45.7906 134.96 45.7006 134.83C45.6106 134.7 45.5106 134.58 45.4006 134.46C45.2906 134.35 45.1806 134.25 45.0506 134.15C44.9306 134.05 44.8006 133.96 44.6606 133.88C44.5206 133.8 44.3806 133.72 44.2306 133.66C44.0806 133.6 43.9306 133.55 43.7706 133.51C43.6106 133.47 43.4406 133.44 43.2706 133.41C43.1006 133.39 42.9206 133.38 42.7406 133.38C42.4606 133.38 42.2006 133.41 41.9506 133.45C41.7006 133.49 41.4606 133.56 41.2406 133.65C41.0306 133.74 40.8206 133.85 40.6306 133.98C40.4406 134.11 40.2606 134.26 40.0906 134.44C39.9206 134.62 39.7806 134.81 39.6506 135.01C39.5206 135.21 39.4206 135.43 39.3406 135.66C39.2506 135.89 39.1906 136.15 39.1406 136.41C39.1006 136.68 39.0806 136.96 39.0806 137.26C39.0806 137.45 39.0906 137.64 39.1106 137.83C39.1306 138.01 39.1606 138.19 39.2006 138.36C39.2406 138.53 39.2906 138.7 39.3406 138.85C39.4006 139.01 39.4706 139.17 39.5506 139.31C39.6306 139.46 39.7106 139.6 39.8006 139.73C39.9006 139.86 39.9906 139.98 40.1006 140.09C40.2106 140.2 40.3206 140.31 40.4406 140.4C40.5706 140.5 40.6906 140.59 40.8306 140.67C40.9606 140.75 41.1006 140.82 41.2506 140.88C41.4006 140.94 41.5506 140.99 41.7106 141.03C41.8706 141.07 42.0406 141.1 42.2106 141.12C42.3806 141.14 42.5606 141.15 42.7406 141.15ZM42.8106 130.45C43.4706 130.45 44.1006 130.52 44.6906 130.67C45.2806 130.81 45.8406 131.02 46.3506 131.31C46.6106 131.45 46.8606 131.61 47.0906 131.78C47.3206 131.96 47.5406 132.14 47.7406 132.35C47.9406 132.55 48.1306 132.77 48.3006 133C48.4706 133.23 48.6306 133.48 48.7706 133.74C48.9106 134 49.0406 134.27 49.1406 134.54C49.2506 134.82 49.3306 135.11 49.4006 135.4C49.4706 135.7 49.5306 136 49.5606 136.32C49.6006 136.63 49.6106 136.95 49.6106 137.28C49.6106 137.93 49.5406 138.56 49.4106 139.14C49.2706 139.73 49.0606 140.28 48.7806 140.8C48.6406 141.05 48.4906 141.3 48.3206 141.53C48.1606 141.76 47.9806 141.98 47.7806 142.18C47.5906 142.38 47.3806 142.57 47.1506 142.74C46.9306 142.92 46.7006 143.08 46.4406 143.22C46.1906 143.37 45.9306 143.49 45.6706 143.6C45.4006 143.71 45.1206 143.8 44.8406 143.87C44.5606 143.94 44.2706 143.99 43.9706 144.03C43.6706 144.06 43.3606 144.08 43.0406 144.08C42.8006 144.08 42.5506 144.07 42.3106 144.05C42.0806 144.03 41.8506 143.99 41.6206 143.95C41.3906 143.9 41.1706 143.85 40.9506 143.78C40.7406 143.71 40.5206 143.63 40.3206 143.54C40.1106 143.44 39.9206 143.34 39.7306 143.23C39.5406 143.12 39.3606 142.99 39.1906 142.86L39.1306 142.81V145.59C39.1306 148.81 39.2606 148.53 35.8906 148.48V137.3C35.8906 136.97 35.9106 136.65 35.9406 136.34C35.9806 136.03 36.0306 135.72 36.1106 135.42C36.1806 135.12 36.2706 134.83 36.3806 134.55C36.4906 134.27 36.6106 134 36.7606 133.74C36.9006 133.48 37.0706 133.23 37.2406 133C37.4206 132.77 37.6106 132.55 37.8106 132.35C38.0206 132.15 38.2406 131.96 38.4706 131.78C38.7006 131.61 38.9506 131.45 39.2206 131.31C39.4906 131.16 39.7606 131.04 40.0406 130.93C40.3206 130.82 40.6106 130.73 40.9106 130.66H40.9206C41.2206 130.59 41.5206 130.54 41.8406 130.5C42.1506 130.47 42.4806 130.45 42.8106 130.45Z" fill="white"/>
<path id="Vector_18" d="M26.6302 133.43C25.0202 133.84 24.1602 135.2 24.0602 136.79L30.8902 135.5C30.2502 133.75 28.3902 132.98 26.6302 133.43ZM28.1302 141.15C28.8002 141.15 29.4102 141.04 29.9402 140.82C30.7602 140.48 31.3602 140.25 31.9202 139.63C33.6302 141.68 33.8902 141.73 31.6902 143.22C31.4902 143.33 31.2702 143.44 31.0402 143.53C30.8202 143.62 30.5902 143.7 30.3502 143.77C30.1102 143.84 29.8702 143.9 29.6202 143.94C29.3702 143.99 29.1102 144.03 28.8502 144.05C28.6002 144.07 28.3302 144.08 28.0602 144.08C27.7202 144.08 27.3802 144.06 27.0502 144.03C26.7302 143.99 26.4102 143.94 26.1002 143.87C25.7902 143.8 25.4802 143.7 25.1902 143.6C24.9002 143.49 24.6202 143.36 24.3502 143.22C24.0702 143.07 23.8202 142.91 23.5702 142.74C23.3302 142.56 23.1002 142.37 22.8902 142.17C22.6802 141.97 22.4802 141.75 22.3002 141.51C22.1202 141.28 21.9502 141.03 21.8002 140.77C21.6502 140.51 21.5202 140.24 21.4102 139.96C21.3002 139.69 21.2002 139.4 21.1302 139.1C21.0502 138.81 21.0002 138.51 20.9602 138.2C20.9202 137.89 20.9102 137.58 20.9102 137.26C20.9102 136.94 20.9202 136.63 20.9602 136.32C21.0002 136.02 21.0502 135.72 21.1202 135.43C21.2002 135.13 21.2902 134.85 21.3902 134.57C21.5002 134.3 21.6302 134.03 21.7802 133.77C21.9202 133.51 22.0802 133.26 22.2502 133.03C22.4302 132.79 22.6102 132.58 22.8102 132.37C23.0102 132.17 23.2302 131.98 23.4602 131.8C23.6802 131.63 23.9302 131.47 24.1802 131.32C24.4402 131.18 24.7002 131.05 24.9702 130.94C25.2402 130.83 25.5202 130.74 25.8102 130.67C26.0902 130.6 26.3902 130.54 26.6902 130.51C26.9902 130.47 27.3002 130.45 27.6202 130.45C27.9102 130.45 28.2102 130.47 28.4902 130.5C28.7802 130.54 29.0602 130.59 29.3402 130.66C29.6202 130.73 29.8902 130.81 30.1502 130.91C30.4102 131.02 30.6702 131.14 30.9102 131.27C31.1602 131.41 31.4002 131.56 31.6202 131.73C31.8502 131.89 32.0602 132.07 32.2602 132.27C32.4602 132.46 32.6402 132.67 32.8202 132.89C32.9902 133.11 33.1502 133.34 33.3002 133.59C33.4502 133.84 33.5802 134.1 33.6902 134.37C33.8002 134.64 33.8902 134.91 33.9702 135.2C34.2602 137.02 34.2702 137.41 31.7802 137.89L24.5602 139.3C25.2802 140.63 26.6602 141.15 28.1302 141.15Z" fill="white"/>
<path id="Vector_19" d="M13.0109 141.29C13.3609 141.29 13.7009 141.25 14.0109 141.17C14.3209 141.09 14.6109 140.98 14.8809 140.82C15.0209 140.74 15.1509 140.65 15.2709 140.56C15.3909 140.47 15.5009 140.37 15.6009 140.26C15.7109 140.15 15.8109 140.03 15.9009 139.91C15.9809 139.79 16.0709 139.66 16.1409 139.52C16.2209 139.38 16.2809 139.24 16.3409 139.09C16.4009 138.94 16.4409 138.78 16.4809 138.62C16.5209 138.46 16.5509 138.29 16.5709 138.12C16.5909 137.95 16.6009 137.77 16.6009 137.58C16.6009 137.3 16.5809 137.04 16.5409 136.79C16.4909 136.54 16.4309 136.3 16.3509 136.08C16.2709 135.87 16.1709 135.67 16.0409 135.48C15.9209 135.29 15.7809 135.11 15.6209 134.95C15.4509 134.79 15.2809 134.65 15.0909 134.52C14.9009 134.4 14.7009 134.3 14.4909 134.22C14.2709 134.14 14.0409 134.07 13.7909 134.03C13.5409 133.99 13.2809 133.97 13.0109 133.97C12.7309 133.97 12.4709 133.99 12.2209 134.03C11.9809 134.07 11.7409 134.14 11.5209 134.22C11.3109 134.3 11.1109 134.4 10.9209 134.52C10.7309 134.65 10.5509 134.79 10.3909 134.95C10.2209 135.11 10.0809 135.29 9.95086 135.48C9.83086 135.67 9.73086 135.87 9.65086 136.09C9.56086 136.31 9.50086 136.54 9.46086 136.79C9.42086 137.04 9.39086 137.3 9.39086 137.58C9.39086 137.77 9.40086 137.95 9.42086 138.12C9.44086 138.29 9.47086 138.46 9.51086 138.62C9.55086 138.78 9.60086 138.93 9.66086 139.08C9.71086 139.23 9.78086 139.38 9.86086 139.51C9.94086 139.65 10.0209 139.79 10.1109 139.91C10.2009 140.03 10.3009 140.15 10.4109 140.26C10.5209 140.37 10.6309 140.47 10.7509 140.56C10.8709 140.65 11.0009 140.74 11.1409 140.82C11.2809 140.9 11.4209 140.96 11.5609 141.02C11.7109 141.08 11.8609 141.13 12.0109 141.17C12.1709 141.21 12.3309 141.24 12.5009 141.26C12.6609 141.28 12.8309 141.29 13.0109 141.29ZM13.4109 130.99C14.0209 130.99 14.6109 131.06 15.1709 131.2C15.7209 131.34 16.2409 131.55 16.7309 131.83C17.2309 132.11 17.6609 132.44 18.0509 132.83C18.4309 133.22 18.7609 133.66 19.0409 134.15C19.1709 134.4 19.2909 134.66 19.4009 134.92C19.5009 135.19 19.5809 135.46 19.6509 135.74C19.7209 136.02 19.7709 136.31 19.8109 136.6C19.8409 136.9 19.8609 137.2 19.8609 137.51C19.8609 137.83 19.8409 138.14 19.8009 138.45C19.7709 138.75 19.7109 139.04 19.6409 139.33C19.5709 139.62 19.4809 139.9 19.3709 140.17C19.2609 140.44 19.1309 140.7 18.9809 140.95C18.6909 141.45 18.3409 141.9 17.9309 142.29C17.5209 142.69 17.0509 143.02 16.5209 143.3C16.2609 143.44 15.9909 143.56 15.7109 143.66C15.4309 143.77 15.1409 143.85 14.8409 143.92C14.5409 143.99 14.2409 144.04 13.9209 144.08C13.6109 144.11 13.2909 144.13 12.9609 144.13C11.8309 144.13 10.8309 143.93 9.95086 143.54C9.07086 143.15 8.32086 142.56 7.70086 141.78C7.40086 141.39 7.13086 140.97 6.90086 140.51C6.67086 140.04 6.48086 139.54 6.32086 139C6.18086 138.47 6.06086 137.91 5.99086 137.3C5.91086 136.7 5.88086 136.06 5.88086 135.38C5.88086 134.06 6.01086 132.88 6.29086 131.83C6.57086 130.79 6.98086 129.88 7.54086 129.12C9.42086 126.52 13.2109 125.79 16.4609 125.17L17.4109 124.98C17.7309 124.92 18.0209 124.86 18.2909 124.8L18.7909 124.69C19.2809 127.4 19.1009 127.81 17.3309 128.09C16.0809 128.33 14.6309 128.6 13.3309 128.99C12.0309 129.38 10.8809 129.9 10.2209 130.61C10.0509 130.8 9.89086 131.01 9.75086 131.24C9.61086 131.48 9.49086 131.73 9.39086 132.01C9.35086 132.11 9.32086 132.21 9.29086 132.31L9.25086 132.43C9.39086 132.31 9.54086 132.2 9.70086 132.09C9.90086 131.95 10.1209 131.82 10.3509 131.7C10.5809 131.58 10.8209 131.48 11.0609 131.39C11.3009 131.3 11.5509 131.23 11.8109 131.17C12.0609 131.11 12.3209 131.06 12.5909 131.03C12.8609 131 13.1309 130.99 13.4109 130.99Z" fill="white"/>
<path id="Vector_20" d="M63.7203 131.19V143.84H60.6003V142.73C60.4303 142.87 60.2603 142.99 60.0803 143.1C59.9003 143.22 59.7103 143.32 59.5003 143.41C59.3003 143.51 59.1003 143.59 58.8903 143.66C58.6803 143.73 58.4603 143.79 58.2503 143.84C58.0303 143.88 57.8103 143.92 57.5803 143.94C57.3503 143.97 57.1203 143.98 56.8903 143.98C56.0003 143.98 55.2003 143.85 54.4903 143.6C53.7903 143.35 53.1703 142.97 52.6503 142.47C52.3803 142.22 52.1503 141.93 51.9503 141.62C51.7503 141.3 51.5803 140.96 51.4503 140.59C51.3203 140.23 51.2303 139.84 51.1603 139.42C51.1003 139 51.0703 138.56 51.0703 138.09V131.05C54.8303 131.05 54.1703 131.29 54.2803 134.11V137.83C54.2803 138.11 54.3003 138.37 54.3303 138.61C54.3603 138.84 54.4103 139.07 54.4703 139.27C54.5303 139.46 54.6103 139.64 54.7003 139.79C54.7903 139.95 54.9003 140.1 55.0203 140.23L55.0303 140.25C55.1503 140.36 55.2703 140.47 55.4103 140.56C55.5503 140.65 55.7103 140.73 55.8903 140.8C56.0603 140.86 56.2603 140.91 56.4703 140.95C56.6803 140.98 56.9003 141 57.1503 141C57.4103 141 57.6703 140.98 57.9003 140.94C58.1403 140.9 58.3603 140.84 58.5703 140.76C58.7703 140.68 58.9503 140.59 59.1303 140.47C59.3003 140.36 59.4603 140.22 59.6103 140.07C59.7503 139.92 59.8803 139.75 59.9903 139.56C60.1003 139.37 60.2003 139.17 60.2703 138.95C60.3503 138.72 60.4103 138.48 60.4403 138.21C60.4803 137.95 60.5003 137.66 60.5003 137.36V131.05H63.7203V131.19Z" fill="white"/>
<path id="Vector_21" d="M85.1813 131.19V143.84H82.0612V142.73C81.8912 142.87 81.7213 142.99 81.5413 143.1C81.3613 143.22 81.1713 143.32 80.9613 143.41C80.7613 143.51 80.5612 143.59 80.3512 143.66C80.1412 143.73 79.9213 143.79 79.7113 143.84C79.4913 143.88 79.2713 143.92 79.0413 143.94C78.8113 143.97 78.5812 143.98 78.3512 143.98C77.4612 143.98 76.6612 143.85 75.9512 143.6C75.2512 143.35 74.6313 142.97 74.1113 142.47C73.8413 142.22 73.6113 141.93 73.4113 141.62C73.2113 141.3 73.0413 140.96 72.9113 140.59C72.7913 140.23 72.6913 139.84 72.6213 139.42C72.5613 139 72.5312 138.56 72.5312 138.09V131.05C76.2912 131.05 75.6312 131.29 75.7412 134.11V137.83C75.7412 138.11 75.7613 138.37 75.7913 138.61C75.8213 138.84 75.8713 139.07 75.9313 139.27C76.0013 139.46 76.0713 139.64 76.1613 139.79C76.2513 139.95 76.3613 140.1 76.4813 140.23L76.4912 140.25C76.6112 140.36 76.7313 140.47 76.8713 140.56C77.0213 140.65 77.1712 140.73 77.3512 140.8C77.5212 140.86 77.7213 140.91 77.9313 140.95C78.1413 140.98 78.3613 141 78.6113 141C78.8713 141 79.1313 140.98 79.3613 140.94C79.6013 140.9 79.8212 140.84 80.0312 140.76C80.2312 140.68 80.4112 140.59 80.5912 140.47C80.7612 140.36 80.9213 140.22 81.0713 140.07C81.2113 139.92 81.3412 139.75 81.4512 139.56C81.5612 139.37 81.6613 139.17 81.7313 138.95C81.8113 138.72 81.8713 138.48 81.9113 138.21C81.9413 137.95 81.9613 137.66 81.9613 137.36V131.05H85.1813V131.19Z" fill="white"/>
<path id="Vector_22" d="M187.54 131.19V143.84H184.42V142.73C184.26 142.87 184.09 142.99 183.91 143.1C183.73 143.22 183.53 143.32 183.33 143.41C183.13 143.51 182.92 143.59 182.72 143.66C182.51 143.73 182.29 143.79 182.07 143.84C181.86 143.88 181.63 143.92 181.41 143.94C181.18 143.97 180.95 143.98 180.72 143.98C179.83 143.98 179.03 143.85 178.32 143.6C177.61 143.35 177 142.97 176.47 142.47C176.21 142.22 175.97 141.93 175.78 141.62C175.58 141.3 175.41 140.96 175.28 140.59C175.15 140.23 175.06 139.84 174.99 139.42C174.93 139 174.9 138.56 174.9 138.09V131.05C178.66 131.05 178 131.29 178.11 134.11V137.83C178.11 138.11 178.12 138.37 178.16 138.61C178.19 138.84 178.24 139.07 178.3 139.27C178.36 139.46 178.44 139.64 178.53 139.79C178.62 139.95 178.72 140.1 178.84 140.23L178.86 140.25C178.97 140.36 179.1 140.47 179.24 140.56C179.38 140.65 179.54 140.73 179.71 140.8C179.89 140.86 180.09 140.91 180.29 140.95C180.5 140.98 180.73 141 180.97 141C181.24 141 181.49 140.98 181.73 140.94C181.97 140.9 182.19 140.84 182.39 140.76C182.59 140.68 182.78 140.59 182.95 140.47C183.13 140.36 183.29 140.22 183.43 140.07C183.58 139.92 183.71 139.75 183.82 139.56C183.93 139.37 184.02 139.17 184.1 138.95C184.18 138.72 184.23 138.48 184.27 138.21C184.31 137.95 184.33 137.66 184.33 137.36V131.05H187.54V131.19Z" fill="white"/>
<path id="Vector_23" d="M148.451 143.73V131.05H159.941V143.73C156.541 143.73 156.661 143.07 156.661 139.68V133.91H151.731V143.73H148.451Z" fill="white"/>
<path id="Vector_24" fill-rule="evenodd" clip-rule="evenodd" d="M181.22 124.29C182.72 124.29 183.94 125.51 183.94 127.02C183.94 128.52 182.72 129.74 181.22 129.74C179.72 129.74 178.5 128.52 178.5 127.02C178.5 125.51 179.72 124.29 181.22 124.29Z" fill="white"/>
</g>
</g>
</g>
</svg>
