<svg width="135" height="35" viewBox="0 0 135 35" fill="none" xmlns="http://www.w3.org/2000/svg">
<g id="&#208;&#161;&#208;&#187;&#208;&#190;&#208;&#185;_x0020_1">
<g id="_2001119678880">
<path id="Vector" fill-rule="evenodd" clip-rule="evenodd" d="M16.208 2.71191C25.1582 2.71191 32.4088 9.9034 32.4088 18.7703C32.4088 27.6443 25.1582 34.8358 16.208 34.8358C7.25773 34.8358 0 27.6443 0 18.7703C0 9.9034 7.25773 2.71191 16.208 2.71191ZM10.0188 26.4516V25.1738H21.1062C21.8162 25.1738 22.3971 25.7488 22.3971 26.4516V27.7295H11.3097C10.5997 27.7295 10.0188 27.1544 10.0188 26.4516ZM18.0726 17.8332C17.506 17.6415 16.5881 17.4995 15.9928 17.4995C14.8812 17.4995 13.6262 17.9113 13.6262 18.9549C13.6262 20.0481 14.6947 20.2966 15.8852 20.1972C17.2909 20.0836 18.0726 19.253 18.0726 17.8332ZM9.38054 19.4021C9.38054 18.5005 9.63155 17.7125 10.1407 17.0239C10.6428 16.3424 11.3456 15.8028 12.242 15.4124C13.1385 15.0219 14.1569 14.8302 15.3043 14.8302C15.8494 14.8302 16.3586 14.8728 16.8319 14.958C17.3124 15.0432 17.7284 15.1781 18.0726 15.3485V14.9367C18.0726 14.3191 17.8861 13.8647 17.5132 13.5666C17.1403 13.2684 16.5307 13.1264 15.6988 13.1264C12.3496 13.1264 11.8763 15.7105 10.0045 11.5504C10.9296 10.9612 11.8978 10.5281 12.9162 10.2442C13.9345 9.96019 15.0318 9.81821 16.1936 9.81821C18.3738 9.81821 20.052 10.2939 21.2497 11.2451C22.4401 12.1893 23.0354 13.595 23.0354 15.4692V23.6048C22.9709 23.6119 22.9063 23.619 22.8418 23.6261C22.4832 23.6758 22.1676 23.6971 21.8879 23.6971C20.9986 23.6971 20.3245 23.5339 19.8655 23.2144C19.3994 22.8949 19.0982 22.4264 18.9619 21.8087L18.8543 21.3189C18.2519 22.0927 17.5419 22.6819 16.7458 23.0866C15.9426 23.4913 15.0892 23.6971 14.1856 23.6971C13.2819 23.6971 12.4644 23.5055 11.7328 23.1363C11.0013 22.7671 10.4276 22.2489 10.0045 21.5958C9.58852 20.9426 9.38054 20.2114 9.38054 19.4021Z" fill="white"/>
<path id="Vector_2" d="M135.001 7.73083V19.3948C133.645 19.3948 132.684 19.3948 131.329 19.3948V18.1241C130.877 18.5997 130.339 18.9618 129.722 19.2173C129.099 19.4658 128.439 19.5936 127.736 19.5936C126.151 19.5936 124.889 19.1321 123.949 18.2163C123.017 17.2934 122.551 15.9162 122.551 14.0846C122.551 11.8342 122.551 9.59082 122.551 7.34748C126.947 7.34748 126.796 6.82924 126.789 10.0594C126.782 11.1739 126.761 12.2885 126.782 13.396C126.804 15.1282 127.492 15.9943 128.855 15.9943C130.633 15.9943 131.021 14.6596 131.021 13.1759C131.021 11.3727 131.021 9.56953 131.021 7.75923L135.001 7.73083Z" fill="white"/>
<path id="Vector_3" d="M116.834 14.2902C116.318 14.1127 115.479 13.9849 114.934 13.9849C113.923 13.9849 112.775 14.3612 112.775 15.3125C112.775 16.3135 113.75 16.5406 114.833 16.4484C116.124 16.349 116.834 15.5822 116.834 14.2902ZM108.902 15.7242C108.902 14.9007 109.132 14.1837 109.598 13.559C110.057 12.9342 110.695 12.4373 111.513 12.0894C112.33 11.7274 113.263 11.5499 114.31 11.5499C114.805 11.5499 115.271 11.5925 115.701 11.6706C116.139 11.7487 116.519 11.8694 116.834 12.0256V11.6493C116.834 11.0885 116.662 10.6696 116.325 10.3998C115.981 10.1301 115.429 9.99518 114.668 9.99518C111.613 9.99518 111.183 12.3521 109.476 8.55405C110.315 8.02161 111.204 7.62405 112.13 7.36848C113.062 7.10581 114.059 6.97803 115.12 6.97803C117.107 6.97803 118.641 7.41108 119.732 8.27718C120.814 9.14328 121.36 10.4282 121.36 12.132V19.5578C121.302 19.5649 121.245 19.572 121.18 19.5791C120.858 19.6217 120.571 19.6359 120.312 19.6359C119.502 19.6359 118.885 19.4939 118.469 19.2028C118.046 18.9118 117.774 18.4858 117.645 17.9179L117.551 17.4706C116.992 18.1735 116.354 18.713 115.622 19.0821C114.891 19.4513 114.116 19.6359 113.284 19.6359C112.459 19.6359 111.714 19.4726 111.047 19.1247C110.38 18.7911 109.856 18.3225 109.476 17.7262C109.096 17.1299 108.902 16.4625 108.902 15.7242Z" fill="white"/>
<path id="Vector_4" d="M107.847 10.2786V19.3869C103.615 19.3869 103.709 19.7916 103.709 14.3465V10.7046H101.026L100.94 12.5433C100.876 14.1122 100.718 15.4114 100.467 16.4336C100.209 17.4559 99.793 18.251 99.2121 18.819C98.624 19.394 97.8279 19.678 96.8095 19.678C96.4223 19.678 95.949 19.6283 95.3824 19.5218C95.3824 15.312 95.2318 17.9032 96.5155 16.313C97.3474 15.1416 97.3044 9.06468 97.3689 7.34668H104.655C107.531 7.34668 107.847 7.36088 107.847 10.2786Z" fill="white"/>
<path id="Vector_5" d="M55.5742 19.4014V7.34701C60.6876 7.34701 60.0135 6.42412 60.0135 11.3439C62.7602 7.08434 63.8862 7.34701 67.9597 7.34701L63.4846 13.0832L68.3541 19.4014C63.1188 19.4014 62.9754 19.7138 60.0135 15.1277C60.0135 20.2746 60.8167 19.4014 55.5742 19.4014Z" fill="white"/>
<path id="Vector_6" d="M49.7014 14.2902C49.185 14.1127 48.346 13.9849 47.8009 13.9849C46.7897 13.9849 45.6422 14.3612 45.6422 15.3125C45.6422 16.3135 46.6176 16.5406 47.7005 16.4484C48.9914 16.349 49.7014 15.5822 49.7014 14.2902ZM41.7695 15.7242C41.7695 14.9007 41.999 14.1837 42.4652 13.559C42.9242 12.9342 43.5624 12.4373 44.38 12.0894C45.1976 11.7274 46.1299 11.5499 47.177 11.5499C47.6718 11.5499 48.138 11.5925 48.5683 11.6706C49.0057 11.7487 49.3858 11.8694 49.7014 12.0256V11.6493C49.7014 11.0885 49.5293 10.6696 49.1922 10.3998C48.848 10.1301 48.2957 9.99518 47.5356 9.99518C44.4804 9.99518 44.0501 12.3521 42.3433 8.55405C43.1823 8.02161 44.0716 7.62405 44.9968 7.36848C45.9291 7.10581 46.926 6.97803 47.9874 6.97803C49.9739 6.97803 51.5087 7.41108 52.5988 8.27718C53.6817 9.14328 54.2267 10.4282 54.2267 12.132V19.5578C54.1693 19.5649 54.1048 19.572 54.0474 19.5791C53.7247 19.6217 53.4307 19.6359 53.1797 19.6359C52.3693 19.6359 51.7525 19.4939 51.3365 19.2028C50.9134 18.9118 50.6409 18.4858 50.5118 17.9179L50.4186 17.4706C49.8592 18.1735 49.2209 18.713 48.4894 19.0821C47.7579 19.4513 46.9762 19.6359 46.1514 19.6359C45.3267 19.6359 44.5808 19.4726 43.9139 19.1247C43.2469 18.7911 42.7234 18.3225 42.3433 17.7262C41.9632 17.1299 41.7695 16.4625 41.7695 15.7242Z" fill="white"/>
<path id="Vector_7" d="M89.6311 14.2902C89.1147 14.1127 88.2756 13.9849 87.7306 13.9849C86.7194 13.9849 85.5719 14.3612 85.5719 15.3125C85.5719 16.3135 86.5473 16.5406 87.6302 16.4484C88.9139 16.349 89.6311 15.5822 89.6311 14.2902ZM81.6992 15.7242C81.6992 14.9007 81.9287 14.1837 82.3877 13.559C82.8467 12.9342 83.485 12.4373 84.3097 12.0894C85.1273 11.7274 86.0596 11.5499 87.1067 11.5499C87.5943 11.5499 88.0605 11.5925 88.498 11.6706C88.9354 11.7487 89.3084 11.8694 89.6311 12.0256V11.6493C89.6311 11.0885 89.459 10.6696 89.1147 10.3998C88.7777 10.1301 88.2254 9.99518 87.4652 9.99518C84.4101 9.99518 83.9798 12.3521 82.273 8.55405C83.112 8.02161 83.9942 7.62405 84.9265 7.36848C85.8516 7.10581 86.8485 6.97803 87.9171 6.97803C89.8964 6.97803 91.4383 7.41108 92.5213 8.27718C93.6114 9.14328 94.1564 10.4282 94.1564 12.132V19.5578C94.0919 19.5649 94.0345 19.572 93.9771 19.5791C93.6472 19.6217 93.3603 19.6359 93.1093 19.6359C92.2989 19.6359 91.6822 19.4939 91.2591 19.2028C90.8431 18.9118 90.5634 18.4858 90.4415 17.9179L90.3411 17.4706C89.7889 18.1735 89.1434 18.713 88.4119 19.0821C87.6876 19.4513 86.9059 19.6359 86.0811 19.6359C85.2564 19.6359 84.5105 19.4726 83.8436 19.1247C83.1766 18.7911 82.6531 18.3225 82.273 17.7262C81.8857 17.1299 81.6992 16.4625 81.6992 15.7242Z" fill="white"/>
<path id="Vector_8" d="M76.0621 15.6604C75.6247 15.852 75.1944 15.9798 74.7641 16.0437C74.3338 16.1147 73.8174 16.1502 73.2222 16.1502C71.9886 16.1502 70.9774 15.8094 70.1885 15.1279C69.3997 14.4535 68.998 13.4738 68.998 12.2031V7.3472C72.6915 7.3472 73.4588 8.00743 73.4588 11.5996C73.4588 12.0114 73.5664 12.3237 73.7744 12.5367C73.9895 12.7497 74.3051 12.8491 74.7282 12.8491C74.9434 12.8491 75.1657 12.8349 75.3952 12.7923C75.6247 12.7568 75.847 12.6929 76.0621 12.6006C76.0621 6.74377 74.8932 7.3472 80.5229 7.3472V19.4016C75.5314 19.4016 76.0621 20.3742 76.0621 15.6604Z" fill="white"/>
<path id="Vector_9" fill-rule="evenodd" clip-rule="evenodd" d="M128.774 0C130.366 0 131.649 1.27785 131.649 2.85388C131.649 4.437 130.366 5.71485 128.774 5.71485C127.182 5.71485 125.891 4.437 125.891 2.85388C125.891 1.27785 127.182 0 128.774 0Z" fill="white"/>
<path id="Vector_10" d="M133.379 30.4478H135V32.258C133.694 32.258 133.379 31.8037 133.379 30.4478Z" fill="white"/>
<path id="Vector_11" d="M133.379 29.0564V23.6895C134.541 23.6895 135 24.0018 135 25.3223V29.0564H133.379Z" fill="white"/>
<path id="Vector_12" d="M122.972 29.6027C122.786 29.5246 122.578 29.4678 122.37 29.4252C122.155 29.3897 121.939 29.3613 121.731 29.3613C121.394 29.3613 120.986 29.4394 120.692 29.6311C120.476 29.7802 120.319 29.9932 120.319 30.2913C120.319 30.5611 120.441 30.767 120.62 30.909C120.828 31.0793 121.129 31.1645 121.416 31.1716H121.437C121.775 31.1716 122.155 30.9871 122.449 30.696C122.75 30.4049 122.965 30.0145 122.972 29.6098V29.6027ZM118.727 30.4262C118.727 30.2203 118.755 30.0287 118.813 29.8512C118.87 29.6666 118.956 29.5033 119.078 29.3471C119.193 29.191 119.329 29.0561 119.494 28.9354C119.659 28.8147 119.845 28.7153 120.053 28.6301C120.254 28.5449 120.484 28.4881 120.72 28.4455C120.957 28.4029 121.208 28.3817 121.48 28.3817C121.746 28.3817 122.047 28.4029 122.341 28.4455C122.563 28.4881 122.779 28.5378 122.972 28.6159V28.332C122.972 27.9486 122.857 27.6504 122.628 27.4446C122.513 27.3452 122.363 27.2671 122.19 27.2103C122.018 27.1606 121.818 27.1322 121.588 27.1322C121.072 27.1322 120.706 27.3026 120.412 27.4446C119.881 27.6859 119.573 27.8279 119.056 26.7701L119.042 26.7488L119.064 26.7346C119.272 26.5998 119.487 26.4791 119.702 26.3726C119.924 26.2732 120.139 26.188 120.362 26.117C120.584 26.0531 120.806 25.9963 121.043 25.9679C121.273 25.9324 121.509 25.9111 121.753 25.9111C122.212 25.9111 122.614 25.9679 122.972 26.0815C123.324 26.188 123.632 26.3584 123.89 26.5856C124.141 26.8056 124.335 27.0754 124.464 27.3949C124.593 27.7143 124.658 28.0835 124.658 28.4952V32.343L124.622 32.3501C124.156 32.414 123.797 32.3572 123.539 32.1726C123.295 32.0022 123.144 31.7183 123.094 31.3278C122.807 31.6828 122.535 31.9525 122.212 32.13C121.868 32.3146 121.473 32.4069 120.957 32.4069C120.742 32.4069 120.541 32.3856 120.355 32.343C120.161 32.3004 119.982 32.2365 119.809 32.1513C119.645 32.0661 119.494 31.9596 119.358 31.8461C119.221 31.7254 119.107 31.5905 119.013 31.4414C118.82 31.1432 118.727 30.8025 118.727 30.4262Z" fill="white"/>
<path id="Vector_13" d="M98.9766 32.2584V26.0395C100.662 26.0395 100.597 25.9401 100.597 27.1895V28.3751C102.139 26.3163 102.118 26.0395 104.585 26.0395L101.86 29.0353L104.829 32.2584C102.225 32.2584 102.247 31.9318 100.597 29.7878V30.9592C100.597 32.3294 100.762 32.2584 98.9766 32.2584Z" fill="white"/>
<path id="Vector_14" d="M93.296 29.1703C93.296 29.5253 93.3677 29.8447 93.5112 30.1287C93.6618 30.4056 93.8554 30.6185 94.1064 30.7747C94.3574 30.9309 94.6371 31.009 94.9527 31.009C95.261 31.009 95.5407 30.9309 95.7917 30.7676C96.0427 30.6114 96.2364 30.3914 96.387 30.1145C96.5376 29.8305 96.6093 29.5182 96.6093 29.1561C96.6093 28.8011 96.5376 28.4888 96.387 28.2048C96.2364 27.9208 96.0427 27.7008 95.7917 27.5446C95.5407 27.3884 95.261 27.3103 94.9527 27.3103C94.6371 27.3103 94.3574 27.3884 94.1064 27.5517C93.8554 27.715 93.6618 27.9279 93.5112 28.2119C93.3677 28.4888 93.296 28.8082 93.296 29.1703ZM94.9527 32.3791C94.4363 32.3791 93.9773 32.2939 93.5613 32.1236C93.1526 31.9532 92.8012 31.7189 92.5143 31.4207C92.2274 31.1155 92.0123 30.7747 91.8545 30.3843C91.7039 30.0009 91.625 29.5963 91.625 29.1703C91.625 28.7301 91.7039 28.3255 91.8545 27.935C92.0123 27.5446 92.2274 27.2038 92.5143 26.9057C92.8012 26.6004 93.1526 26.3661 93.5613 26.2028C93.9773 26.0325 94.4363 25.9473 94.9527 25.9473C95.469 25.9473 95.9352 26.0325 96.3368 26.2028C96.7456 26.3661 97.097 26.6004 97.3838 26.9057C97.6779 27.2038 97.9002 27.5446 98.0436 27.935C98.1942 28.3255 98.2731 28.7301 98.2731 29.1703C98.2731 29.5963 98.1942 30.0009 98.0436 30.3843C97.9002 30.7747 97.6779 31.1155 97.391 31.4207C97.1041 31.7189 96.7599 31.9532 96.344 32.1236C95.9352 32.2939 95.469 32.3791 94.9527 32.3791Z" fill="white"/>
<path id="Vector_15" d="M85.2637 32.2584V26.0396H90.958V32.2584C89.2726 32.2584 89.33 31.9319 89.33 30.2707V27.4452H86.8845V32.2584H85.2637Z" fill="white"/>
<path id="Vector_16" d="M111.475 26.0395V31.5698C111.475 34.6154 108.779 35.6944 106.24 34.5586C104.978 33.9835 105.135 33.7848 105.824 32.7199C106.577 33.2168 107.251 33.4795 108.162 33.4795C109.352 33.4795 109.847 32.9399 109.883 31.8041C109.374 32.1945 108.728 32.3791 108.09 32.3791C107.129 32.3791 106.182 32.0596 105.645 31.229C105.315 30.7179 105.207 30.1003 105.207 29.5039V26.0395C106.806 26.0395 106.799 25.7343 106.799 27.6014V29.3762C106.799 30.3061 107.194 30.9167 108.219 30.9167C109.345 30.9167 109.883 30.1997 109.883 29.1348V26.0395H111.475Z" fill="white"/>
<path id="Vector_17" d="M60.0289 30.9948C60.115 30.9948 60.2082 30.9877 60.2871 30.9735C60.3732 30.9664 60.452 30.9522 60.5309 30.9309C60.6098 30.9096 60.6887 30.8884 60.7604 30.86C60.8393 30.8245 60.911 30.7961 60.9756 30.7535C61.0473 30.7109 61.1118 30.6683 61.1764 30.6257C61.2338 30.576 61.2911 30.5263 61.3485 30.4695C61.3987 30.4127 61.4489 30.3559 61.4919 30.292C61.5421 30.2281 61.5852 30.1642 61.621 30.0932C61.6569 30.0151 61.6927 29.9442 61.7214 29.8661C61.7501 29.788 61.7788 29.7099 61.7931 29.6247C61.8147 29.5466 61.829 29.4543 61.8362 29.3691C61.8505 29.2768 61.8577 29.1916 61.8577 29.0923C61.8577 29 61.8505 28.9077 61.8362 28.8154C61.829 28.7302 61.8147 28.645 61.7931 28.5598C61.7788 28.4746 61.7501 28.3965 61.7214 28.3184C61.6927 28.2404 61.6569 28.1694 61.621 28.0984C61.5852 28.0274 61.5421 27.9564 61.4919 27.8925C61.4489 27.8286 61.3987 27.7718 61.3485 27.715C61.2911 27.6582 61.2338 27.6085 61.1764 27.5588C61.1118 27.5091 61.0473 27.4665 60.9827 27.4239C60.911 27.3884 60.8393 27.353 60.7676 27.3175C60.6959 27.2891 60.617 27.2607 60.5381 27.2465C60.4592 27.2252 60.3803 27.211 60.2943 27.1968C60.2082 27.1897 60.1222 27.1826 60.0289 27.1826C59.8927 27.1826 59.7636 27.1968 59.6345 27.2181C59.5126 27.2394 59.3978 27.2678 59.2902 27.3175C59.1827 27.3601 59.0823 27.4097 58.9819 27.4736C58.8886 27.5375 58.8026 27.6156 58.7165 27.7008C58.6376 27.786 58.5587 27.8783 58.5014 27.9777C58.4368 28.0771 58.3866 28.1836 58.3436 28.2971C58.3005 28.4178 58.2719 28.5385 58.2503 28.6663C58.2288 28.8012 58.2145 28.9361 58.2145 29.0852C58.2145 29.1774 58.2217 29.2697 58.2288 29.362C58.2432 29.4543 58.2575 29.5395 58.2719 29.6247C58.2934 29.7099 58.3221 29.788 58.3507 29.8661C58.3794 29.9442 58.4081 30.0222 58.4511 30.0932C58.487 30.1642 58.53 30.2281 58.5731 30.292C58.6233 30.3559 58.6735 30.4198 58.7237 30.4695C58.7739 30.5263 58.8313 30.576 58.8958 30.6257C58.9532 30.6754 59.0177 30.718 59.0823 30.7535C59.1468 30.7961 59.2185 30.8245 59.2902 30.86C59.3691 30.8884 59.4408 30.9096 59.5197 30.9309C59.5986 30.9522 59.6847 30.9664 59.7636 30.9735C59.8496 30.9877 59.9357 30.9948 60.0289 30.9948ZM60.0648 25.7485C60.3947 25.7485 60.7031 25.784 60.9971 25.8479C61.2911 25.9189 61.5637 26.0254 61.8218 26.1674C61.9509 26.2384 62.0728 26.3165 62.1876 26.4017C62.3023 26.4868 62.4027 26.5791 62.5031 26.6785C62.6035 26.7779 62.6968 26.8844 62.7828 26.998C62.8689 27.1116 62.9478 27.2323 63.0195 27.353C63.084 27.4807 63.1486 27.6156 63.1988 27.7505C63.249 27.8854 63.2992 28.0274 63.3279 28.1765C63.3637 28.3184 63.3924 28.4675 63.4068 28.6237C63.4283 28.7728 63.4355 28.929 63.4355 29.0923C63.4355 29.4117 63.3996 29.717 63.3279 30.0081C63.2633 30.292 63.1629 30.5618 63.0195 30.8174C62.955 30.9451 62.8761 31.0658 62.7972 31.1794C62.7111 31.293 62.6251 31.3995 62.5247 31.4989C62.4314 31.5983 62.3239 31.6906 62.2163 31.7757C62.1087 31.8609 61.9868 31.9319 61.8649 32.0029C61.7429 32.0739 61.6139 32.1378 61.4776 32.1946C61.3485 32.2443 61.2122 32.2869 61.0688 32.3224C60.9325 32.3579 60.7819 32.3863 60.6385 32.4005C60.4879 32.4218 60.3373 32.4289 60.1795 32.4289C60.0576 32.4289 59.9357 32.4218 59.8209 32.4147C59.699 32.4005 59.5843 32.3863 59.4767 32.365H59.4695C59.362 32.3437 59.2544 32.3153 59.1468 32.2798C59.0392 32.2443 58.9317 32.2088 58.8312 32.1591C58.7308 32.1165 58.6304 32.0668 58.5372 32.01C58.444 31.9532 58.3579 31.8964 58.2719 31.8254L58.2432 31.8041V33.1672C58.2432 34.7503 58.3005 34.6083 56.6367 34.587V29.1065C56.6367 28.9432 56.6439 28.787 56.6654 28.6308C56.6797 28.4817 56.7084 28.3255 56.7443 28.1836C56.7802 28.0345 56.8232 27.8925 56.8806 27.7576C56.9308 27.6227 56.9953 27.4878 57.067 27.3601C57.1387 27.2323 57.2176 27.1116 57.3037 26.998C57.3897 26.8844 57.4901 26.7779 57.5906 26.6785C57.691 26.5791 57.7985 26.4868 57.9133 26.4017C58.028 26.3165 58.1571 26.2384 58.2862 26.1674C58.4153 26.0964 58.5516 26.0325 58.695 25.9828C58.8313 25.926 58.9747 25.8834 59.1253 25.8479C59.2759 25.8124 59.4265 25.7911 59.5843 25.7698C59.7349 25.7556 59.8998 25.7485 60.0648 25.7485Z" fill="white"/>
<path id="Vector_18" d="M52.0509 27.2039C51.2549 27.4097 50.8246 28.07 50.7744 28.8509L54.1594 28.2191C53.8367 27.3601 52.9187 26.9909 52.0509 27.2039ZM52.7896 30.9948C53.1267 30.9948 53.4207 30.938 53.6861 30.8245C54.0948 30.6612 54.3889 30.5547 54.6686 30.2494C55.5148 31.2504 55.6439 31.2717 54.5538 32.0029C54.4534 32.0597 54.3459 32.1094 54.2311 32.1591C54.1235 32.2017 54.0088 32.2443 53.8869 32.2798C53.7721 32.3082 53.6502 32.3366 53.5283 32.3579C53.4064 32.3863 53.2773 32.4005 53.1482 32.4147C53.0191 32.4218 52.89 32.4289 52.7537 32.4289C52.5888 32.4289 52.4167 32.4218 52.2589 32.4005C52.0939 32.3863 51.9362 32.3579 51.7856 32.3224C51.6278 32.2869 51.4772 32.2443 51.3338 32.1875C51.1903 32.1378 51.0541 32.0739 50.9178 32.0029C50.7815 31.9319 50.6524 31.8538 50.5305 31.7686C50.4158 31.6835 50.301 31.5912 50.1935 31.4918C50.0859 31.3924 49.9926 31.2859 49.8994 31.1723C49.8134 31.0516 49.7273 30.9309 49.6556 30.8032C49.5839 30.6754 49.5193 30.5476 49.4619 30.4127C49.4046 30.2707 49.3615 30.1358 49.3257 29.9868C49.2898 29.8448 49.2611 29.6957 49.2396 29.5466C49.2253 29.3975 49.2109 29.2413 49.2109 29.0852C49.2109 28.929 49.2181 28.7728 49.2396 28.6237C49.254 28.4746 49.2827 28.3255 49.3185 28.1836C49.3544 28.0416 49.3974 27.8996 49.4548 27.7647C49.5121 27.6298 49.5695 27.502 49.6412 27.3742C49.713 27.2465 49.7918 27.1258 49.8779 27.0122C49.964 26.8915 50.0572 26.785 50.1576 26.6856C50.258 26.5862 50.3656 26.494 50.4731 26.4088C50.5879 26.3236 50.7098 26.2455 50.8389 26.1745C50.9608 26.1035 51.0899 26.0396 51.2262 25.9828C51.3624 25.9331 51.4987 25.8905 51.6421 25.855C51.7856 25.8195 51.929 25.7911 52.0796 25.7698C52.223 25.7556 52.3808 25.7485 52.5386 25.7485C52.682 25.7485 52.8255 25.7556 52.9689 25.7698C53.1123 25.7911 53.2558 25.8124 53.392 25.8479C53.5283 25.8834 53.6574 25.9189 53.7936 25.9757C53.9227 26.0254 54.0446 26.0822 54.1666 26.1461C54.2956 26.2171 54.4104 26.2881 54.518 26.3733C54.6327 26.4514 54.7403 26.5436 54.8335 26.6359C54.9339 26.7282 55.0272 26.8347 55.1132 26.9412C55.1993 27.0477 55.2782 27.1613 55.3499 27.2891C55.4216 27.4097 55.4861 27.5375 55.5435 27.6653C55.6009 27.8002 55.6439 27.9351 55.6798 28.0771C55.8232 28.9645 55.8304 29.1561 54.5969 29.3904L51.0182 30.0861C51.384 30.7322 52.0581 30.9948 52.7896 30.9948Z" fill="white"/>
<path id="Vector_19" d="M45.3052 31.0585C45.4773 31.0585 45.6422 31.0372 45.8 31.0017C45.9578 30.9662 46.1012 30.9023 46.2303 30.8314C46.302 30.7888 46.3594 30.7462 46.4239 30.7036C46.4813 30.6539 46.5387 30.6042 46.5889 30.5545C46.6391 30.4977 46.6893 30.4409 46.7323 30.3841C46.7754 30.3273 46.8184 30.2563 46.8542 30.1924C46.8901 30.1214 46.926 30.0504 46.9546 29.9794C46.9833 29.9085 47.0048 29.8304 47.0264 29.7523C47.0407 29.6742 47.055 29.589 47.0694 29.5038C47.0766 29.4186 47.0837 29.3334 47.0837 29.2411C47.0837 29.1062 47.0694 28.9714 47.0479 28.8507C47.0335 28.73 46.9977 28.6164 46.9618 28.5099C46.9188 28.4034 46.8686 28.304 46.8112 28.2117C46.7467 28.1195 46.675 28.0343 46.5961 27.9491C46.5172 27.871 46.4311 27.8 46.3379 27.7432C46.2447 27.6793 46.1442 27.6296 46.0367 27.5941C45.9291 27.5515 45.8144 27.5231 45.6924 27.5018C45.5705 27.4805 45.4414 27.4734 45.3052 27.4734C45.1689 27.4734 45.0398 27.4805 44.9179 27.5018C44.796 27.5231 44.6741 27.5515 44.5665 27.5941C44.4589 27.6296 44.3585 27.6793 44.2653 27.7432C44.172 27.8 44.086 27.871 44.0071 27.9491C43.921 28.0343 43.8493 28.1195 43.7919 28.2117C43.7274 28.304 43.6772 28.4034 43.6413 28.5099C43.5983 28.6164 43.5624 28.73 43.5481 28.8507C43.5266 28.9785 43.5122 29.1062 43.5122 29.2411C43.5122 29.3334 43.5194 29.4186 43.5266 29.5038C43.5409 29.589 43.5553 29.6742 43.5696 29.7523C43.5911 29.8304 43.6126 29.9014 43.6413 29.9794C43.67 30.0504 43.7059 30.1214 43.7417 30.1924C43.7848 30.2563 43.8206 30.3202 43.8708 30.3841C43.9139 30.4409 43.9641 30.4977 44.0143 30.5545C44.0716 30.6042 44.129 30.6539 44.1864 30.7036C44.2438 30.7462 44.3083 30.7888 44.38 30.8314C44.4446 30.8668 44.5163 30.9023 44.588 30.9307C44.6597 30.9591 44.7314 30.9804 44.8103 31.0017C44.8892 31.023 44.9681 31.0372 45.047 31.0443C45.133 31.0585 45.2191 31.0585 45.3052 31.0585ZM45.4988 26.011C45.8072 26.011 46.094 26.0465 46.3737 26.1104C46.6463 26.1814 46.9044 26.2808 47.1483 26.4228C47.3921 26.5576 47.6073 26.7209 47.8009 26.9126C47.9874 27.1043 48.1523 27.3173 48.2886 27.5586C48.3603 27.6793 48.4177 27.8071 48.4679 27.9349C48.5181 28.0698 48.5611 28.1975 48.597 28.3395C48.6256 28.4744 48.6543 28.6164 48.6687 28.7655C48.6902 28.9075 48.6974 29.0566 48.6974 29.2056C48.6974 29.3618 48.6902 29.518 48.6687 29.6671C48.6543 29.8162 48.6256 29.9581 48.5898 30.1001C48.5539 30.2421 48.5109 30.377 48.4535 30.5119C48.4033 30.6397 48.3388 30.7675 48.2671 30.8952C48.1165 31.1366 47.9443 31.3567 47.7435 31.5484C47.5356 31.7471 47.3061 31.9104 47.0407 32.0453C46.9116 32.1163 46.7825 32.1731 46.6391 32.2228C46.5028 32.2725 46.3594 32.3151 46.2088 32.3506C46.0654 32.3861 45.9148 32.4074 45.757 32.4287C45.5992 32.4429 45.4414 32.45 45.2836 32.45C44.7243 32.45 44.2222 32.3577 43.7919 32.166C43.3545 31.9743 42.9815 31.6833 42.6732 31.2999C42.5226 31.1082 42.3935 30.9023 42.2787 30.6752C42.164 30.448 42.0707 30.1995 41.9919 29.9369C41.9201 29.6813 41.8628 29.3973 41.8269 29.1062C41.791 28.8081 41.7695 28.4957 41.7695 28.1621C41.7695 27.516 41.8412 26.9339 41.9775 26.4228C42.1138 25.9116 42.3217 25.4644 42.5943 25.0952C43.5266 23.8173 45.4056 23.4624 47.012 23.1571L47.4853 23.0648C47.6431 23.0364 47.7866 23.0009 47.9156 22.9725L48.1667 22.9229C48.4105 24.2504 48.3173 24.4492 47.4423 24.5912C46.8256 24.7047 46.1084 24.8396 45.4629 25.0313C44.8247 25.223 44.2509 25.4715 43.9282 25.8193C43.835 25.9187 43.7561 26.0181 43.6915 26.1317C43.6198 26.2524 43.5624 26.3731 43.5122 26.515C43.4907 26.5576 43.4764 26.6073 43.462 26.657L43.4405 26.7138C43.5122 26.657 43.584 26.6002 43.6628 26.5505C43.7633 26.4795 43.878 26.4157 43.9856 26.3589C44.1003 26.3021 44.2151 26.2524 44.337 26.2027C44.4589 26.1601 44.5808 26.1246 44.7099 26.0962C44.8318 26.0678 44.9609 26.0465 45.0972 26.0323C45.2263 26.0181 45.3625 26.011 45.4988 26.011Z" fill="white"/>
<path id="Vector_20" d="M70.4204 26.1034V32.3081H68.8713V31.7686C68.7924 31.8325 68.7063 31.8964 68.6203 31.9461C68.5271 32.0029 68.4338 32.0526 68.3334 32.1023C68.233 32.1449 68.1326 32.1875 68.025 32.2229C67.9246 32.2584 67.8171 32.2868 67.7095 32.3081C67.6019 32.3294 67.4943 32.3507 67.3796 32.3578C67.2648 32.372 67.1501 32.3791 67.0354 32.3791C66.5979 32.3791 66.2034 32.3152 65.852 32.1945C65.5006 32.0668 65.1922 31.8822 64.9341 31.6408C64.805 31.513 64.6902 31.3781 64.5898 31.222C64.4894 31.0658 64.4105 30.8954 64.346 30.7179C64.2814 30.5404 64.2312 30.3488 64.2025 30.1429C64.1667 29.937 64.1523 29.7169 64.1523 29.4898V26.0396C66.017 26.0396 65.6942 26.1602 65.7444 27.5375V29.362C65.7444 29.4969 65.7516 29.6246 65.766 29.7453C65.7875 29.8589 65.809 29.9725 65.8377 30.0648C65.8735 30.1642 65.9094 30.2494 65.9524 30.3275C65.9955 30.4056 66.0528 30.4765 66.1102 30.5404L66.1174 30.5475C66.1748 30.6043 66.2393 30.654 66.3038 30.7037C66.3756 30.7463 66.4544 30.7889 66.5405 30.8173C66.6266 30.8528 66.727 30.8741 66.8274 30.8954C66.9349 30.9096 67.0425 30.9167 67.1644 30.9167C67.3007 30.9167 67.4226 30.9096 67.5374 30.8883C67.6593 30.867 67.7669 30.8386 67.8673 30.8031C67.9677 30.7605 68.0609 30.7179 68.147 30.6611C68.233 30.6043 68.3119 30.5404 68.3836 30.4623C68.4553 30.3843 68.5199 30.3062 68.5773 30.2139C68.6275 30.1216 68.6777 30.0222 68.7135 29.9157C68.7494 29.8021 68.7781 29.6814 68.7996 29.5537C68.8139 29.4188 68.8283 29.2839 68.8283 29.1348V26.0396H70.4204V26.1034Z" fill="white"/>
<path id="Vector_21" d="M81.0473 26.1034V32.3081H79.4983V31.7686C79.4194 31.8325 79.3333 31.8964 79.2472 31.9461C79.154 32.0029 79.0608 32.0526 78.9604 32.1023C78.86 32.1449 78.7596 32.1875 78.652 32.2229C78.5516 32.2584 78.444 32.2868 78.3364 32.3081C78.2289 32.3294 78.1213 32.3507 78.0065 32.3578C77.8918 32.372 77.7771 32.3791 77.6623 32.3791C77.2248 32.3791 76.8304 32.3152 76.479 32.1945C76.1276 32.0668 75.8192 31.8822 75.561 31.6408C75.4319 31.513 75.3172 31.3781 75.2168 31.222C75.1164 31.0658 75.0375 30.8954 74.9729 30.7179C74.9084 30.5404 74.8582 30.3488 74.8295 30.1429C74.8008 29.937 74.7793 29.7169 74.7793 29.4898V26.0396C76.6439 26.0396 76.3212 26.1602 76.3714 27.5375V29.362C76.3714 29.4969 76.3786 29.6246 76.4001 29.7453C76.4144 29.8589 76.4359 29.9725 76.4718 30.0648C76.5005 30.1642 76.5364 30.2494 76.5794 30.3275C76.6224 30.4056 76.6798 30.4765 76.7372 30.5404L76.7443 30.5475C76.8017 30.6043 76.8663 30.654 76.9308 30.7037C77.0025 30.7463 77.0814 30.7889 77.1675 30.8173C77.2535 30.8528 77.3539 30.8741 77.4543 30.8954C77.5619 30.9096 77.6695 30.9167 77.7914 30.9167C77.9277 30.9167 78.0496 30.9096 78.1643 30.8883C78.2862 30.867 78.3938 30.8386 78.4942 30.8031C78.5946 30.7605 78.6879 30.7179 78.7739 30.6611C78.86 30.6043 78.9389 30.5404 79.0106 30.4623C79.0823 30.3843 79.1468 30.3062 79.2042 30.2139C79.2544 30.1216 79.3046 30.0222 79.3405 29.9157C79.3763 29.8021 79.405 29.6814 79.4265 29.5537C79.448 29.4188 79.4552 29.2839 79.4552 29.1348V26.0396H81.0473V26.1034Z" fill="white"/>
<path id="Vector_22" d="M131.743 26.1034V32.3081H130.201V31.7686C130.122 31.8325 130.036 31.8964 129.943 31.9461C129.857 32.0029 129.757 32.0526 129.656 32.1023C129.563 32.1449 129.456 32.1875 129.355 32.2229C129.248 32.2584 129.147 32.2868 129.04 32.3081C128.932 32.3294 128.817 32.3507 128.71 32.3578C128.595 32.372 128.48 32.3791 128.365 32.3791C127.921 32.3791 127.526 32.3152 127.175 32.1945C126.831 32.0668 126.522 31.8822 126.264 31.6408C126.128 31.513 126.013 31.3781 125.92 31.222C125.819 31.0658 125.741 30.8954 125.676 30.7179C125.612 30.5404 125.561 30.3488 125.533 30.1429C125.497 29.937 125.482 29.7169 125.482 29.4898V26.0396C127.347 26.0396 127.017 26.1602 127.075 27.5375V29.362C127.075 29.4969 127.082 29.6246 127.096 29.7453C127.11 29.8589 127.139 29.9725 127.168 30.0648C127.196 30.1642 127.239 30.2494 127.283 30.3275C127.326 30.4056 127.376 30.4765 127.44 30.5404L127.447 30.5475C127.505 30.6043 127.562 30.654 127.634 30.7037C127.706 30.7463 127.785 30.7889 127.871 30.8173C127.957 30.8528 128.05 30.8741 128.157 30.8954C128.258 30.9096 128.373 30.9167 128.495 30.9167C128.624 30.9167 128.753 30.9096 128.867 30.8883C128.982 30.867 129.097 30.8386 129.197 30.8031C129.298 30.7605 129.391 30.7179 129.47 30.6611C129.556 30.6043 129.642 30.5404 129.714 30.4623C129.785 30.3843 129.85 30.3062 129.9 30.2139C129.958 30.1216 130.001 30.0222 130.044 29.9157C130.079 29.8021 130.108 29.6814 130.122 29.5537C130.144 29.4188 130.151 29.2839 130.151 29.1348V26.0396H131.743V26.1034Z" fill="white"/>
<path id="Vector_23" d="M112.387 32.2584V26.0396H118.074V32.2584C116.389 32.2584 116.453 31.9319 116.453 30.2707V27.4452H114.008V32.2584H112.387Z" fill="white"/>
<path id="Vector_24" fill-rule="evenodd" clip-rule="evenodd" d="M128.618 22.7241C129.356 22.7241 129.966 23.3276 129.966 24.0659C129.966 24.8042 129.356 25.4005 128.618 25.4005C127.872 25.4005 127.27 24.8042 127.27 24.0659C127.27 23.3276 127.872 22.7241 128.618 22.7241Z" fill="white"/>
</g>
</g>
</svg>
