<svg width="163" height="47" viewBox="0 0 163 47" fill="none" xmlns="http://www.w3.org/2000/svg">
<g id="akchalai_fullcolor_horizontal_rgb 3">
<g id="&#208;&#161;&#208;&#187;&#208;&#190;&#208;&#185;_x0020_1">
<g id="_2001119678880">
<path id="Vector" fill-rule="evenodd" clip-rule="evenodd" d="M23.0733 5.79138C33.2445 5.79138 41.4841 13.861 41.4841 23.8107C41.4841 33.7683 33.2445 41.838 23.0733 41.838C12.9021 41.838 4.6543 33.7683 4.6543 23.8107C4.6543 13.861 12.9021 5.79138 23.0733 5.79138ZM16.0398 32.43V30.9961H28.6397C29.4466 30.9961 30.1067 31.6414 30.1067 32.43V33.8639H17.5068C16.7 33.8639 16.0398 33.2187 16.0398 32.43ZM25.1923 22.7592C24.5484 22.5441 23.5052 22.3848 22.8288 22.3848C21.5655 22.3848 20.1393 22.8468 20.1393 24.0178C20.1393 25.2446 21.3536 25.5234 22.7065 25.4119C24.3039 25.2844 25.1923 24.3524 25.1923 22.7592ZM15.3145 24.5197C15.3145 23.508 15.5997 22.6238 16.1784 21.851C16.7489 21.0863 17.5476 20.4809 18.5663 20.0427C19.5851 19.6046 20.7424 19.3895 22.0464 19.3895C22.6658 19.3895 23.2444 19.4373 23.7823 19.5329C24.3284 19.6285 24.8011 19.7799 25.1923 19.971V19.509C25.1923 18.816 24.9804 18.3061 24.5566 17.9716C24.1328 17.637 23.44 17.4777 22.4946 17.4777C18.6886 17.4777 18.1507 20.3773 16.0235 15.7092C17.0749 15.048 18.1751 14.5621 19.3324 14.2434C20.4897 13.9248 21.7367 13.7655 23.057 13.7655C25.5346 13.7655 27.4417 14.2992 28.8027 15.3666C30.1556 16.4261 30.8321 18.0034 30.8321 20.1065V29.2356C30.7587 29.2436 30.6854 29.2516 30.612 29.2595C30.2045 29.3153 29.8459 29.3392 29.5281 29.3392C28.5175 29.3392 27.7514 29.156 27.2298 28.7975C26.7 28.439 26.3577 27.9132 26.2029 27.2202L26.0806 26.6705C25.396 27.5388 24.5892 28.2 23.6845 28.6541C22.7717 29.1082 21.8019 29.3392 20.775 29.3392C19.7481 29.3392 18.819 29.1241 17.9877 28.7099C17.1564 28.2956 16.5044 27.7141 16.0235 26.9812C15.5508 26.2483 15.3145 25.4278 15.3145 24.5197Z" fill="white"/>
<path id="Vector_2" d="M158.07 11.4234V24.5117C156.53 24.5117 155.438 24.5117 153.897 24.5117V23.0857C153.384 23.6195 152.773 24.0257 152.072 24.3125C151.363 24.5913 150.613 24.7347 149.814 24.7347C148.013 24.7347 146.579 24.2169 145.511 23.1893C144.452 22.1537 143.922 20.6083 143.922 18.553C143.922 16.0278 143.922 13.5105 143.922 10.9932C148.918 10.9932 148.747 10.4117 148.739 14.0362C148.73 15.2869 148.706 16.5376 148.73 17.7803C148.755 19.724 149.537 20.6959 151.086 20.6959C153.107 20.6959 153.547 19.1983 153.547 17.5334C153.547 15.51 153.547 13.4866 153.547 11.4552L158.07 11.4234Z" fill="white"/>
<path id="Vector_3" d="M137.426 18.7841C136.839 18.5849 135.886 18.4415 135.266 18.4415C134.117 18.4415 132.813 18.8637 132.813 19.9312C132.813 21.0544 133.922 21.3093 135.152 21.2058C136.619 21.0942 137.426 20.2339 137.426 18.7841ZM128.412 20.3932C128.412 19.4691 128.673 18.6646 129.203 17.9636C129.724 17.2625 130.45 16.7049 131.379 16.3146C132.308 15.9083 133.367 15.7091 134.557 15.7091C135.12 15.7091 135.649 15.7569 136.138 15.8446C136.635 15.9322 137.067 16.0676 137.426 16.2429V15.8207C137.426 15.1914 137.23 14.7214 136.847 14.4186C136.456 14.1159 135.829 13.9646 134.965 13.9646C131.493 13.9646 131.004 16.6093 129.064 12.3475C130.018 11.75 131.028 11.3039 132.08 11.0171C133.139 10.7224 134.272 10.579 135.478 10.579C137.736 10.579 139.48 11.0649 140.719 12.0368C141.949 13.0086 142.569 14.4505 142.569 16.3624V24.6949C142.503 24.7029 142.438 24.7108 142.365 24.7188C141.998 24.7666 141.672 24.7825 141.379 24.7825C140.458 24.7825 139.757 24.6232 139.284 24.2966C138.803 23.97 138.494 23.492 138.347 22.8547L138.241 22.3529C137.605 23.1415 136.88 23.7469 136.049 24.1612C135.217 24.5754 134.337 24.7825 133.392 24.7825C132.455 24.7825 131.607 24.5993 130.849 24.209C130.091 23.8346 129.496 23.3088 129.064 22.6397C128.632 21.9705 128.412 21.2217 128.412 20.3932Z" fill="white"/>
<path id="Vector_4" d="M127.214 14.2832V24.5037C122.405 24.5037 122.511 24.9577 122.511 18.8477V14.7611H119.463L119.365 16.8244C119.292 18.5849 119.113 20.0427 118.827 21.1898C118.534 22.3369 118.061 23.2291 117.401 23.8664C116.733 24.5116 115.828 24.8303 114.671 24.8303C114.231 24.8303 113.693 24.7745 113.049 24.655C113.049 19.9311 112.878 22.8388 114.337 21.0543C115.282 19.7399 115.233 12.921 115.307 10.9932H123.587C126.855 10.9932 127.214 11.0091 127.214 14.2832Z" fill="white"/>
<path id="Vector_5" d="M67.8086 24.5197V10.9932C73.6195 10.9932 72.8534 9.95763 72.8534 15.4781C75.9749 10.6985 77.2544 10.9932 81.8836 10.9932L76.798 17.4298L82.3319 24.5197C76.3824 24.5197 76.2194 24.8702 72.8534 19.7241C72.8534 25.4995 73.7662 24.5197 67.8086 24.5197Z" fill="white"/>
<path id="Vector_6" d="M61.133 18.7841C60.5462 18.5849 59.5927 18.4415 58.9733 18.4415C57.8241 18.4415 56.5201 18.8637 56.5201 19.9312C56.5201 21.0544 57.6285 21.3093 58.8592 21.2058C60.3262 21.0942 61.133 20.2339 61.133 18.7841ZM52.1191 20.3932C52.1191 19.4691 52.3799 18.6646 52.9097 17.9636C53.4313 17.2625 54.1566 16.7049 55.0857 16.3146C56.0148 15.9083 57.0743 15.7091 58.2642 15.7091C58.8266 15.7091 59.3563 15.7569 59.8453 15.8446C60.3425 15.9322 60.7744 16.0676 61.133 16.2429V15.8207C61.133 15.1914 60.9374 14.7214 60.5544 14.4186C60.1632 14.1159 59.5356 13.9646 58.6717 13.9646C55.1998 13.9646 54.7108 16.6093 52.7711 12.3475C53.7247 11.75 54.7353 11.3039 55.7866 11.0171C56.8461 10.7224 57.979 10.579 59.1852 10.579C61.4427 10.579 63.1868 11.0649 64.4256 12.0368C65.6563 13.0086 66.2757 14.4505 66.2757 16.3624V24.6949C66.2105 24.7029 66.1371 24.7108 66.0719 24.7188C65.7052 24.7666 65.371 24.7825 65.0858 24.7825C64.1648 24.7825 63.4639 24.6232 62.9912 24.2966C62.5104 23.97 62.2007 23.492 62.054 22.8547L61.948 22.3529C61.3123 23.1415 60.587 23.7469 59.7557 24.1612C58.9244 24.5754 58.036 24.7825 57.0988 24.7825C56.1615 24.7825 55.3139 24.5993 54.556 24.209C53.798 23.8346 53.2031 23.3088 52.7711 22.6397C52.3392 21.9705 52.1191 21.2217 52.1191 20.3932Z" fill="white"/>
<path id="Vector_7" d="M106.514 18.7841C105.927 18.5849 104.974 18.4415 104.354 18.4415C103.205 18.4415 101.901 18.8637 101.901 19.9312C101.901 21.0544 103.009 21.3093 104.24 21.2058C105.699 21.0942 106.514 20.2339 106.514 18.7841ZM97.5 20.3932C97.5 19.4691 97.7608 18.6646 98.2824 17.9636C98.804 17.2625 99.5293 16.7049 100.467 16.3146C101.396 15.9083 102.455 15.7091 103.645 15.7091C104.199 15.7091 104.729 15.7569 105.226 15.8446C105.723 15.9322 106.147 16.0676 106.514 16.2429V15.8207C106.514 15.1914 106.318 14.7214 105.927 14.4186C105.544 14.1159 104.917 13.9646 104.053 13.9646C100.581 13.9646 100.092 16.6093 98.152 12.3475C99.1056 11.75 100.108 11.3039 101.168 11.0171C102.219 10.7224 103.352 10.579 104.566 10.579C106.815 10.579 108.568 11.0649 109.798 12.0368C111.037 13.0086 111.657 14.4505 111.657 16.3624V24.6949C111.583 24.7029 111.518 24.7108 111.453 24.7188C111.078 24.7666 110.752 24.7825 110.467 24.7825C109.546 24.7825 108.845 24.6232 108.364 24.2966C107.891 23.97 107.573 23.492 107.435 22.8547L107.321 22.3529C106.693 23.1415 105.96 23.7469 105.128 24.1612C104.305 24.5754 103.417 24.7825 102.48 24.7825C101.542 24.7825 100.695 24.5993 99.9369 24.209C99.1789 23.8346 98.584 23.3088 98.152 22.6397C97.7119 21.9705 97.5 21.2217 97.5 20.3932Z" fill="white"/>
<path id="Vector_8" d="M91.0942 20.3215C90.597 20.5365 90.108 20.6799 89.619 20.7516C89.13 20.8313 88.5432 20.8711 87.8668 20.8711C86.465 20.8711 85.3158 20.4887 84.4193 19.724C83.5228 18.9672 83.0664 17.8679 83.0664 16.442V10.9932C87.2637 10.9932 88.1357 11.734 88.1357 15.7649C88.1357 16.2269 88.258 16.5774 88.4943 16.8164C88.7388 17.0554 89.0974 17.1669 89.5783 17.1669C89.8228 17.1669 90.0754 17.151 90.3362 17.1032C90.597 17.0633 90.8497 16.9916 91.0942 16.8881C91.0942 10.316 89.7657 10.9932 96.1635 10.9932V24.5196C90.4911 24.5196 91.0942 25.611 91.0942 20.3215Z" fill="white"/>
<path id="Vector_9" fill-rule="evenodd" clip-rule="evenodd" d="M150.995 2.74829C152.804 2.74829 154.263 4.18219 154.263 5.95066C154.263 7.72711 152.804 9.161 150.995 9.161C149.186 9.161 147.719 7.72711 147.719 5.95066C147.719 4.18219 149.186 2.74829 150.995 2.74829Z" fill="white"/>
<path id="Vector_10" d="M156.229 36.9149H158.07V38.9463C156.587 38.9463 156.229 38.4364 156.229 36.9149Z" fill="white"/>
<path id="Vector_11" d="M156.229 35.3536V29.3312C157.549 29.3312 158.07 29.6817 158.07 31.1634V35.3536H156.229Z" fill="white"/>
<path id="Vector_12" d="M144.403 35.967C144.191 35.8793 143.955 35.8156 143.718 35.7678C143.474 35.728 143.229 35.6961 142.993 35.6961C142.61 35.6961 142.145 35.7837 141.811 35.9988C141.567 36.1661 141.387 36.4051 141.387 36.7397C141.387 37.0424 141.526 37.2734 141.73 37.4327C141.966 37.6239 142.308 37.7195 142.634 37.7275H142.659C143.042 37.7275 143.474 37.5203 143.808 37.1937C144.15 36.8671 144.395 36.429 144.403 35.9749V35.967ZM139.578 36.891C139.578 36.66 139.611 36.4449 139.676 36.2458C139.741 36.0387 139.839 35.8554 139.977 35.6802C140.108 35.5049 140.263 35.3536 140.45 35.2181C140.638 35.0827 140.85 34.9712 141.086 34.8756C141.314 34.78 141.575 34.7163 141.844 34.6685C142.113 34.6207 142.398 34.5968 142.708 34.5968C143.009 34.5968 143.352 34.6207 143.686 34.6685C143.938 34.7163 144.183 34.772 144.403 34.8597V34.541C144.403 34.1109 144.273 33.7763 144.012 33.5453C143.881 33.4337 143.71 33.3461 143.515 33.2824C143.319 33.2266 143.091 33.1948 142.83 33.1948C142.243 33.1948 141.828 33.3859 141.493 33.5453C140.89 33.8161 140.54 33.9754 139.953 32.7885L139.937 32.7646L139.961 32.7487C140.198 32.5973 140.442 32.4619 140.687 32.3424C140.939 32.2309 141.184 32.1353 141.436 32.0556C141.689 31.9839 141.942 31.9202 142.211 31.8883C142.471 31.8485 142.74 31.8246 143.017 31.8246C143.539 31.8246 143.995 31.8883 144.403 32.0158C144.802 32.1353 145.153 32.3264 145.446 32.5814C145.731 32.8283 145.951 33.131 146.098 33.4895C146.245 33.848 146.318 34.2622 146.318 34.7242V39.0419L146.277 39.0498C145.748 39.1215 145.34 39.0578 145.047 38.8507C144.77 38.6595 144.599 38.3409 144.541 37.9027C144.215 38.301 143.906 38.6037 143.539 38.8029C143.148 39.01 142.7 39.1136 142.113 39.1136C141.868 39.1136 141.64 39.0897 141.428 39.0419C141.208 38.9941 141.004 38.9224 140.809 38.8268C140.621 38.7312 140.45 38.6117 140.295 38.4842C140.14 38.3488 140.01 38.1975 139.904 38.0302C139.684 37.6956 139.578 37.3132 139.578 36.891Z" fill="white"/>
<path id="Vector_13" d="M117.133 38.9462V31.9679C119.048 31.9679 118.975 31.8564 118.975 33.2584V34.5888C120.727 32.2786 120.703 31.9679 123.506 31.9679L120.409 35.3296L123.783 38.9462C120.825 38.9462 120.849 38.5798 118.975 36.174V37.4884C118.975 39.0259 119.162 38.9462 117.133 38.9462Z" fill="white"/>
<path id="Vector_14" d="M110.678 35.481C110.678 35.8793 110.76 36.2378 110.923 36.5564C111.094 36.8671 111.314 37.1061 111.599 37.2813C111.884 37.4566 112.202 37.5442 112.561 37.5442C112.911 37.5442 113.229 37.4566 113.514 37.2734C113.8 37.0981 114.02 36.8512 114.191 36.5405C114.362 36.2218 114.444 35.8713 114.444 35.4651C114.444 35.0668 114.362 34.7162 114.191 34.3976C114.02 34.079 113.8 33.832 113.514 33.6568C113.229 33.4815 112.911 33.3939 112.561 33.3939C112.202 33.3939 111.884 33.4815 111.599 33.6647C111.314 33.8479 111.094 34.0869 110.923 34.4056C110.76 34.7162 110.678 35.0747 110.678 35.481ZM112.561 39.0817C111.974 39.0817 111.452 38.9861 110.98 38.7949C110.515 38.6037 110.116 38.3408 109.79 38.0062C109.464 37.6637 109.219 37.2813 109.04 36.8432C108.869 36.413 108.779 35.959 108.779 35.481C108.779 34.9871 108.869 34.533 109.04 34.0949C109.219 33.6568 109.464 33.2744 109.79 32.9398C110.116 32.5973 110.515 32.3344 110.98 32.1512C111.452 31.96 111.974 31.8644 112.561 31.8644C113.148 31.8644 113.677 31.96 114.134 32.1512C114.598 32.3344 114.998 32.5973 115.324 32.9398C115.658 33.2744 115.911 33.6568 116.074 34.0949C116.245 34.533 116.334 34.9871 116.334 35.481C116.334 35.959 116.245 36.413 116.074 36.8432C115.911 37.2813 115.658 37.6637 115.332 38.0062C115.006 38.3408 114.615 38.6037 114.142 38.7949C113.677 38.9861 113.148 39.0817 112.561 39.0817Z" fill="white"/>
<path id="Vector_15" d="M101.549 38.9462V31.9679H108.02V38.9462C106.105 38.9462 106.17 38.5798 106.17 36.7157V33.5452H103.391V38.9462H101.549Z" fill="white"/>
<path id="Vector_16" d="M131.338 31.9679V38.1735C131.338 41.591 128.274 42.8018 125.388 41.5273C123.954 40.882 124.133 40.659 124.916 39.464C125.771 40.0217 126.538 40.3164 127.573 40.3164C128.926 40.3164 129.488 39.711 129.529 38.4364C128.95 38.8746 128.216 39.0817 127.491 39.0817C126.399 39.0817 125.323 38.7232 124.712 37.7912C124.337 37.2176 124.215 36.5246 124.215 35.8554V31.9679C126.032 31.9679 126.024 31.6254 126.024 33.7205V35.712C126.024 36.7556 126.472 37.4407 127.638 37.4407C128.917 37.4407 129.529 36.6361 129.529 35.4412V31.9679H131.338Z" fill="white"/>
<path id="Vector_17" d="M72.8706 37.5283C72.9684 37.5283 73.0743 37.5203 73.164 37.5044C73.2618 37.4964 73.3514 37.4805 73.4411 37.4566C73.5307 37.4327 73.6204 37.4088 73.7019 37.377C73.7915 37.3371 73.873 37.3053 73.9464 37.2575C74.0279 37.2097 74.1012 37.1619 74.1746 37.1141C74.2398 37.0583 74.305 37.0025 74.3702 36.9388C74.4272 36.8751 74.4843 36.8114 74.5332 36.7397C74.5902 36.668 74.6391 36.5963 74.6799 36.5166C74.7206 36.429 74.7614 36.3493 74.794 36.2617C74.8266 36.1741 74.8592 36.0864 74.8755 35.9908C74.8999 35.9032 74.9162 35.7997 74.9244 35.7041C74.9407 35.6005 74.9488 35.5049 74.9488 35.3934C74.9488 35.2898 74.9407 35.1863 74.9244 35.0827C74.9162 34.9871 74.8999 34.8915 74.8755 34.7959C74.8592 34.7003 74.8266 34.6127 74.794 34.5251C74.7614 34.4375 74.7206 34.3578 74.6799 34.2781C74.6391 34.1985 74.5902 34.1188 74.5332 34.0471C74.4843 33.9754 74.4272 33.9117 74.3702 33.848C74.305 33.7842 74.2398 33.7285 74.1746 33.6727C74.1012 33.617 74.0279 33.5692 73.9545 33.5214C73.873 33.4815 73.7915 33.4417 73.71 33.4019C73.6285 33.37 73.5389 33.3381 73.4492 33.3222C73.3596 33.2983 73.2699 33.2824 73.1721 33.2664C73.0743 33.2585 72.9765 33.2505 72.8706 33.2505C72.7157 33.2505 72.569 33.2664 72.4223 33.2903C72.2838 33.3142 72.1534 33.3461 72.0311 33.4019C71.9089 33.4497 71.7948 33.5054 71.6807 33.5771C71.5747 33.6488 71.4769 33.7364 71.3791 33.832C71.2895 33.9276 71.1998 34.0312 71.1346 34.1427C71.0613 34.2542 71.0042 34.3737 70.9553 34.5012C70.9064 34.6366 70.8738 34.772 70.8494 34.9154C70.8249 35.0668 70.8086 35.2181 70.8086 35.3854C70.8086 35.489 70.8168 35.5925 70.8249 35.6961C70.8412 35.7997 70.8575 35.8953 70.8738 35.9908C70.8983 36.0864 70.9309 36.1741 70.9635 36.2617C70.9961 36.3493 71.0287 36.4369 71.0776 36.5166C71.1183 36.5963 71.1672 36.668 71.2161 36.7397C71.2732 36.8114 71.3302 36.8831 71.3873 36.9388C71.4443 37.0025 71.5095 37.0583 71.5829 37.1141C71.6481 37.1698 71.7214 37.2176 71.7948 37.2575C71.8681 37.3053 71.9496 37.3371 72.0311 37.377C72.1208 37.4088 72.2023 37.4327 72.2919 37.4566C72.3816 37.4805 72.4794 37.4964 72.569 37.5044C72.6668 37.5203 72.7646 37.5283 72.8706 37.5283ZM72.9113 31.6414C73.2862 31.6414 73.6367 31.6812 73.9708 31.7529C74.305 31.8325 74.6147 31.952 74.9081 32.1114C75.0548 32.191 75.1933 32.2786 75.3237 32.3742C75.4541 32.4698 75.5682 32.5734 75.6823 32.6849C75.7964 32.7964 75.9024 32.9159 76.0002 33.0434C76.098 33.1708 76.1876 33.3063 76.2691 33.4417C76.3425 33.5851 76.4158 33.7364 76.4729 33.8878C76.5299 34.0392 76.587 34.1985 76.6196 34.3658C76.6603 34.5251 76.6929 34.6924 76.7092 34.8676C76.7337 35.0349 76.7418 35.2102 76.7418 35.3934C76.7418 35.7519 76.7011 36.0944 76.6196 36.421C76.5462 36.7397 76.4321 37.0424 76.2691 37.3292C76.1958 37.4725 76.1061 37.608 76.0165 37.7354C75.9187 37.8629 75.8209 37.9824 75.7068 38.0939C75.6008 38.2054 75.4786 38.309 75.3563 38.4046C75.2341 38.5002 75.0955 38.5798 74.957 38.6595C74.8184 38.7392 74.6717 38.8108 74.5169 38.8746C74.3702 38.9303 74.2153 38.9781 74.0523 39.018C73.8975 39.0578 73.7263 39.0897 73.5633 39.1056C73.3922 39.1295 73.221 39.1375 73.0417 39.1375C72.9032 39.1375 72.7646 39.1295 72.6342 39.1215C72.4957 39.1056 72.3653 39.0897 72.243 39.0658H72.2349C72.1126 39.0419 71.9904 39.01 71.8681 38.9702C71.7459 38.9303 71.6236 38.8905 71.5095 38.8347C71.3954 38.7869 71.2813 38.7312 71.1754 38.6675C71.0694 38.6037 70.9716 38.54 70.8738 38.4603L70.8412 38.4364V39.9659C70.8412 41.7424 70.9064 41.5831 69.0156 41.5592V35.4093C69.0156 35.2261 69.0238 35.0508 69.0482 34.8756C69.0645 34.7083 69.0971 34.5331 69.1379 34.3737C69.1786 34.2064 69.2275 34.0471 69.2927 33.8958C69.3498 33.7444 69.4231 33.5931 69.5046 33.4497C69.5861 33.3063 69.6758 33.1708 69.7736 33.0434C69.8714 32.9159 69.9855 32.7964 70.0996 32.6849C70.2137 32.5734 70.3359 32.4698 70.4663 32.3742C70.5967 32.2786 70.7434 32.191 70.8901 32.1114C71.0368 32.0317 71.1917 31.96 71.3547 31.9042C71.5095 31.8405 71.6725 31.7927 71.8437 31.7529C72.0148 31.7131 72.186 31.6892 72.3653 31.6653C72.5364 31.6493 72.7239 31.6414 72.9113 31.6414Z" fill="white"/>
<path id="Vector_18" d="M63.8075 33.2744C62.9028 33.5054 62.4138 34.2463 62.3568 35.1225L66.2036 34.4136C65.8368 33.4497 64.7936 33.0354 63.8075 33.2744ZM64.6469 37.5283C65.03 37.5283 65.3641 37.4646 65.6657 37.3371C66.1302 37.1539 66.4644 37.0344 66.7822 36.6919C67.7439 37.8151 67.8906 37.839 66.6518 38.6595C66.5377 38.7232 66.4155 38.779 66.2851 38.8347C66.1628 38.8825 66.0324 38.9303 65.8939 38.9702C65.7635 39.002 65.6249 39.0339 65.4864 39.0578C65.3478 39.0897 65.2011 39.1056 65.0544 39.1215C64.9077 39.1295 64.761 39.1375 64.6062 39.1375C64.4187 39.1375 64.2231 39.1295 64.0438 39.1056C63.8564 39.0897 63.6771 39.0578 63.5059 39.018C63.3266 38.9781 63.1555 38.9303 62.9925 38.8666C62.8295 38.8108 62.6746 38.7392 62.5198 38.6595C62.3649 38.5798 62.2182 38.4922 62.0797 38.3966C61.9493 38.301 61.8189 38.1975 61.6966 38.0859C61.5744 37.9744 61.4684 37.8549 61.3625 37.7275C61.2647 37.592 61.1669 37.4566 61.0854 37.3132C61.0039 37.1698 60.9305 37.0264 60.8653 36.8751C60.8001 36.7158 60.7512 36.5644 60.7105 36.3971C60.6697 36.2378 60.6371 36.0705 60.6127 35.9032C60.5964 35.7359 60.5801 35.5607 60.5801 35.3854C60.5801 35.2102 60.5882 35.0349 60.6127 34.8676C60.629 34.7003 60.6616 34.5331 60.7023 34.3737C60.7431 34.2144 60.792 34.0551 60.8572 33.9037C60.9224 33.7524 60.9876 33.609 61.0691 33.4656C61.1506 33.3222 61.2402 33.1868 61.338 33.0593C61.4358 32.9239 61.5418 32.8044 61.6559 32.6929C61.77 32.5814 61.8922 32.4778 62.0145 32.3822C62.1449 32.2866 62.2834 32.199 62.4301 32.1193C62.5687 32.0397 62.7154 31.968 62.8702 31.9042C63.0251 31.8485 63.1799 31.8007 63.3429 31.7608C63.5059 31.721 63.6689 31.6892 63.8401 31.6653C64.0031 31.6493 64.1824 31.6414 64.3617 31.6414C64.5247 31.6414 64.6877 31.6493 64.8507 31.6653C65.0137 31.6892 65.1767 31.7131 65.3315 31.7529C65.4864 31.7927 65.6331 31.8325 65.7879 31.8963C65.9346 31.952 66.0732 32.0158 66.2117 32.0875C66.3584 32.1671 66.4888 32.2468 66.6111 32.3424C66.7415 32.43 66.8637 32.5336 66.9697 32.6371C67.0838 32.7407 67.1897 32.8602 67.2875 32.9797C67.3853 33.0992 67.475 33.2266 67.5565 33.37C67.638 33.5054 67.7113 33.6488 67.7765 33.7922C67.8417 33.9436 67.8906 34.0949 67.9314 34.2542C68.0944 35.25 68.1025 35.4651 66.7007 35.728L62.6339 36.5086C63.0495 37.2336 63.8156 37.5283 64.6469 37.5283Z" fill="white"/>
<path id="Vector_19" d="M56.1371 37.6C56.3327 37.6 56.5201 37.5761 56.6994 37.5362C56.8787 37.4964 57.0417 37.4247 57.1884 37.3451C57.2699 37.2973 57.3351 37.2495 57.4085 37.2017C57.4737 37.1459 57.5389 37.0901 57.5959 37.0344C57.653 36.9707 57.71 36.9069 57.7589 36.8432C57.8078 36.7795 57.8567 36.6998 57.8975 36.6281C57.9382 36.5485 57.979 36.4688 58.0116 36.3891C58.0442 36.3095 58.0686 36.2218 58.0931 36.1342C58.1094 36.0466 58.1257 35.951 58.142 35.8554C58.1501 35.7598 58.1583 35.6642 58.1583 35.5607C58.1583 35.4093 58.142 35.2579 58.1175 35.1225C58.1012 34.9871 58.0605 34.8596 58.0197 34.7401C57.9708 34.6207 57.9138 34.5091 57.8486 34.4056C57.7752 34.302 57.6937 34.2064 57.6041 34.1108C57.5144 34.0232 57.4166 33.9435 57.3107 33.8798C57.2047 33.8081 57.0906 33.7523 56.9684 33.7125C56.8461 33.6647 56.7157 33.6329 56.5772 33.609C56.4386 33.5851 56.2919 33.5771 56.1371 33.5771C55.9822 33.5771 55.8355 33.5851 55.697 33.609C55.5584 33.6329 55.4199 33.6647 55.2976 33.7125C55.1754 33.7523 55.0613 33.8081 54.9553 33.8798C54.8494 33.9435 54.7516 34.0232 54.6619 34.1108C54.5641 34.2064 54.4826 34.302 54.4174 34.4056C54.3441 34.5091 54.287 34.6207 54.2463 34.7401C54.1974 34.8596 54.1566 34.9871 54.1403 35.1225C54.1159 35.2659 54.0996 35.4093 54.0996 35.5607C54.0996 35.6642 54.1077 35.7598 54.1159 35.8554C54.1322 35.951 54.1485 36.0466 54.1648 36.1342C54.1892 36.2218 54.2137 36.3015 54.2463 36.3891C54.2789 36.4688 54.3196 36.5485 54.3604 36.6281C54.4093 36.6998 54.45 36.7715 54.5071 36.8432C54.556 36.9069 54.613 36.9707 54.6701 37.0344C54.7353 37.0901 54.8005 37.1459 54.8657 37.2017C54.9309 37.2495 55.0042 37.2973 55.0857 37.3451C55.1591 37.3849 55.2406 37.4247 55.3221 37.4566C55.4036 37.4885 55.4851 37.5123 55.5747 37.5362C55.6644 37.5601 55.754 37.5761 55.8437 37.584C55.9415 37.6 56.0393 37.6 56.1371 37.6ZM56.3571 31.9361C56.7076 31.9361 57.0336 31.9759 57.3514 32.0476C57.6611 32.1273 57.9545 32.2388 58.2316 32.3981C58.5087 32.5495 58.7532 32.7327 58.9733 32.9478C59.1852 33.1629 59.3726 33.4018 59.5275 33.6727C59.609 33.8081 59.6742 33.9515 59.7312 34.0949C59.7883 34.2462 59.8372 34.3896 59.8779 34.549C59.9105 34.7003 59.9431 34.8596 59.9594 35.0269C59.9839 35.1862 59.992 35.3535 59.992 35.5208C59.992 35.6961 59.9839 35.8713 59.9594 36.0386C59.9431 36.2059 59.9105 36.3652 59.8698 36.5246C59.829 36.6839 59.7801 36.8352 59.7149 36.9866C59.6579 37.13 59.5845 37.2734 59.503 37.4168C59.3319 37.6876 59.1363 37.9346 58.9081 38.1496C58.6717 38.3727 58.4109 38.5559 58.1094 38.7073C57.9627 38.7869 57.816 38.8507 57.653 38.9064C57.4981 38.9622 57.3351 39.01 57.164 39.0498C57.001 39.0896 56.8298 39.1135 56.6505 39.1374C56.4712 39.1534 56.2919 39.1613 56.1126 39.1613C55.4769 39.1613 54.9064 39.0578 54.4174 38.8427C53.9203 38.6276 53.4965 38.301 53.146 37.8708C52.9749 37.6557 52.8282 37.4247 52.6978 37.1698C52.5674 36.9149 52.4614 36.6361 52.3718 36.3413C52.2903 36.0546 52.2251 35.7359 52.1843 35.4093C52.1436 35.0747 52.1191 34.7242 52.1191 34.3498C52.1191 33.6249 52.2006 32.9717 52.3555 32.3981C52.5103 31.8246 52.7467 31.3227 53.0564 30.9085C54.1159 29.4746 56.2512 29.0762 58.0768 28.7337L58.6147 28.6301C58.794 28.5983 58.957 28.5585 59.1037 28.5266L59.3889 28.4708C59.666 29.9605 59.5601 30.1835 58.5658 30.3429C57.8649 30.4703 57.0499 30.6217 56.3164 30.8368C55.591 31.0518 54.939 31.3307 54.5723 31.721C54.4663 31.8325 54.3767 31.944 54.3033 32.0715C54.2218 32.2069 54.1566 32.3423 54.0996 32.5017C54.0751 32.5495 54.0588 32.6052 54.0425 32.661L54.0181 32.7247C54.0996 32.661 54.1811 32.5973 54.2707 32.5415C54.3848 32.4618 54.5152 32.3901 54.6375 32.3264C54.7679 32.2627 54.8983 32.2069 55.0368 32.1512C55.1754 32.1034 55.3139 32.0635 55.4606 32.0317C55.5992 31.9998 55.7459 31.9759 55.9007 31.96C56.0474 31.944 56.2023 31.9361 56.3571 31.9361Z" fill="white"/>
<path id="Vector_20" d="M84.6797 32.0396V39.002H82.9193V38.3965C82.8297 38.4682 82.7319 38.5399 82.6341 38.5957C82.5281 38.6594 82.4222 38.7152 82.3081 38.7709C82.194 38.8187 82.0799 38.8665 81.9576 38.9064C81.8435 38.9462 81.7213 38.9781 81.599 39.002C81.4768 39.0259 81.3545 39.0498 81.2241 39.0577C81.0937 39.0737 80.9633 39.0816 80.8329 39.0816C80.3358 39.0816 79.8875 39.0099 79.4882 38.8745C79.0888 38.7311 78.7384 38.524 78.445 38.2531C78.2983 38.1098 78.1679 37.9584 78.0538 37.7831C77.9397 37.6079 77.85 37.4167 77.7767 37.2176C77.7033 37.0184 77.6463 36.8033 77.6137 36.5723C77.5729 36.3413 77.5566 36.0943 77.5566 35.8394V31.9679C79.6756 31.9679 79.3089 32.1033 79.3659 33.6487V35.696C79.3659 35.8474 79.3741 35.9908 79.3904 36.1262C79.4148 36.2537 79.4393 36.3811 79.4719 36.4847C79.5126 36.5962 79.5534 36.6918 79.6023 36.7794C79.6512 36.867 79.7164 36.9467 79.7816 37.0184L79.7897 37.0264C79.8549 37.0901 79.9283 37.1459 80.0016 37.2016C80.0831 37.2494 80.1728 37.2972 80.2706 37.3291C80.3684 37.3689 80.4825 37.3928 80.5966 37.4167C80.7188 37.4326 80.8411 37.4406 80.9796 37.4406C81.1345 37.4406 81.273 37.4326 81.4034 37.4087C81.542 37.3848 81.6642 37.353 81.7783 37.3131C81.8924 37.2654 81.9984 37.2176 82.0962 37.1538C82.194 37.0901 82.2836 37.0184 82.3651 36.9308C82.4466 36.8431 82.52 36.7555 82.5852 36.652C82.6422 36.5484 82.6993 36.4369 82.74 36.3174C82.7808 36.1899 82.8134 36.0545 82.8378 35.9111C82.8541 35.7598 82.8704 35.6084 82.8704 35.4411V31.9679H84.6797V32.0396Z" fill="white"/>
<path id="Vector_21" d="M96.7579 32.0396V39.002H94.9975V38.3965C94.9078 38.4682 94.81 38.5399 94.7122 38.5957C94.6063 38.6594 94.5003 38.7152 94.3862 38.7709C94.2721 38.8187 94.158 38.8665 94.0358 38.9064C93.9217 38.9462 93.7994 38.9781 93.6772 39.002C93.5549 39.0259 93.4327 39.0498 93.3023 39.0577C93.1719 39.0737 93.0415 39.0816 92.9111 39.0816C92.4139 39.0816 91.9657 39.0099 91.5663 38.8745C91.167 38.7311 90.8165 38.524 90.5231 38.2531C90.3764 38.1098 90.246 37.9584 90.1319 37.7831C90.0178 37.6079 89.9282 37.4167 89.8548 37.2176C89.7815 37.0184 89.7244 36.8033 89.6918 36.5723C89.6592 36.3413 89.6348 36.0943 89.6348 35.8394V31.9679C91.7538 31.9679 91.387 32.1033 91.4441 33.6487V35.696C91.4441 35.8474 91.4522 35.9908 91.4767 36.1262C91.493 36.2537 91.5174 36.3811 91.5582 36.4847C91.5908 36.5962 91.6315 36.6918 91.6804 36.7794C91.7293 36.867 91.7945 36.9467 91.8597 37.0184L91.8679 37.0264C91.9331 37.0901 92.0064 37.1459 92.0798 37.2016C92.1613 37.2494 92.2509 37.2972 92.3487 37.3291C92.4465 37.3689 92.5606 37.3928 92.6747 37.4167C92.797 37.4326 92.9192 37.4406 93.0578 37.4406C93.2126 37.4406 93.3512 37.4326 93.4816 37.4087C93.6201 37.3848 93.7424 37.353 93.8565 37.3131C93.9706 37.2654 94.0765 37.2176 94.1743 37.1538C94.2721 37.0901 94.3618 37.0184 94.4433 36.9308C94.5248 36.8431 94.5981 36.7555 94.6633 36.652C94.7204 36.5484 94.7774 36.4369 94.8182 36.3174C94.8589 36.1899 94.8915 36.0545 94.916 35.9111C94.9404 35.7598 94.9486 35.6084 94.9486 35.4411V31.9679H96.7579V32.0396Z" fill="white"/>
<path id="Vector_22" d="M154.369 32.0396V39.002H152.617V38.3965C152.527 38.4682 152.429 38.5399 152.323 38.5957C152.225 38.6594 152.111 38.7152 151.997 38.7709C151.891 38.8187 151.769 38.8665 151.655 38.9064C151.533 38.9462 151.419 38.9781 151.296 39.002C151.174 39.0259 151.044 39.0498 150.921 39.0577C150.791 39.0737 150.661 39.0816 150.53 39.0816C150.025 39.0816 149.577 39.0099 149.177 38.8745C148.786 38.7311 148.436 38.524 148.142 38.2531C147.987 38.1098 147.857 37.9584 147.751 37.7831C147.637 37.6079 147.547 37.4167 147.474 37.2176C147.401 37.0184 147.344 36.8033 147.311 36.5723C147.27 36.3413 147.254 36.0943 147.254 35.8394V31.9679C149.373 31.9679 148.998 32.1033 149.063 33.6487V35.696C149.063 35.8474 149.071 35.9908 149.088 36.1262C149.104 36.2537 149.137 36.3811 149.169 36.4847C149.202 36.5962 149.251 36.6918 149.3 36.7794C149.348 36.867 149.406 36.9467 149.479 37.0184L149.487 37.0264C149.552 37.0901 149.617 37.1459 149.699 37.2016C149.78 37.2494 149.87 37.2972 149.968 37.3291C150.066 37.3689 150.172 37.3928 150.294 37.4167C150.408 37.4326 150.538 37.4406 150.677 37.4406C150.824 37.4406 150.97 37.4326 151.101 37.4087C151.231 37.3848 151.362 37.353 151.476 37.3131C151.59 37.2654 151.696 37.2176 151.785 37.1538C151.883 37.0901 151.981 37.0184 152.062 36.9308C152.144 36.8431 152.217 36.7555 152.274 36.652C152.34 36.5484 152.388 36.4369 152.437 36.3174C152.478 36.1899 152.511 36.0545 152.527 35.9111C152.551 35.7598 152.56 35.6084 152.56 35.4411V31.9679H154.369V32.0396Z" fill="white"/>
<path id="Vector_23" d="M132.373 38.9462V31.9679H138.836V38.9462C136.921 38.9462 136.994 38.5798 136.994 36.7157V33.5452H134.215V38.9462H132.373Z" fill="white"/>
<path id="Vector_24" fill-rule="evenodd" clip-rule="evenodd" d="M150.817 28.2478C151.657 28.2478 152.35 28.9249 152.35 29.7534C152.35 30.5819 151.657 31.251 150.817 31.251C149.97 31.251 149.285 30.5819 149.285 29.7534C149.285 28.9249 149.97 28.2478 150.817 28.2478Z" fill="white"/>
</g>
</g>
</g>
</svg>
