<svg width="48" height="48" viewBox="0 0 48 48" fill="none" xmlns="http://www.w3.org/2000/svg">
<g id="whatsapp">
<path id="bg" d="M39.9919 0H7.4059C3.31574 0 0 3.31574 0 7.4059V39.9919C0 44.082 3.31574 47.3978 7.4059 47.3978H39.9919C44.082 47.3978 47.3978 44.082 47.3978 39.9919V7.4059C47.3978 3.31574 44.082 0 39.9919 0Z" fill="#F8F8F8"/>
<path id="whatsapp_2" fill-rule="evenodd" clip-rule="evenodd" d="M31.9937 15.2561C29.7719 13.0344 26.8095 11.8494 23.6991 11.8494C17.1819 11.8494 11.8496 17.1817 11.8496 23.6989C11.8496 25.7725 12.4421 27.8462 13.4789 29.6236L11.8496 35.5483L18.0706 33.919C19.848 34.8077 21.7735 35.4002 23.6991 35.4002C30.2162 35.4002 35.5485 30.0679 35.5485 23.5508C35.5485 20.4403 34.2154 17.4779 31.9937 15.2561ZM23.6991 33.4747C21.9216 33.4747 20.1442 33.0303 18.663 32.1416L18.3668 31.9935L14.6638 33.0303L15.7007 29.4755L15.4044 29.0311C14.3676 27.4018 13.9233 25.6244 13.9233 23.847C13.9233 18.5147 18.3668 14.0712 23.6991 14.0712C26.3652 14.0712 28.7351 15.108 30.6606 16.8854C32.5862 18.811 33.4749 21.1809 33.4749 23.847C33.4749 29.0311 29.1794 33.4747 23.6991 33.4747ZM29.0313 26.0688C28.7351 25.9206 27.2539 25.1801 26.9577 25.1801C26.6614 25.0319 26.5133 25.0319 26.3652 25.3282C26.217 25.6244 25.6246 26.2169 25.4765 26.5131C25.3284 26.6612 25.1802 26.6612 24.884 26.6612C24.5877 26.5131 23.6991 26.2169 22.5141 25.1801C21.6254 24.4395 21.0329 23.4026 20.8848 23.1064C20.7367 22.8102 20.8848 22.662 21.0329 22.5139C21.1811 22.3658 21.3292 22.2177 21.4773 22.0696C21.6254 21.9215 21.6254 21.7733 21.7735 21.6252C21.9217 21.4771 21.7735 21.329 21.7735 21.1809C21.7735 21.0327 21.1811 19.5516 20.8848 18.9591C20.7367 18.5147 20.4405 18.5147 20.2924 18.5147C20.1442 18.5147 19.9961 18.5147 19.6998 18.5147C19.5517 18.5147 19.2555 18.5147 18.9593 18.811C18.663 19.1072 17.9225 19.8478 17.9225 21.329C17.9225 22.8102 18.9593 24.1432 19.1074 24.4395C19.2555 24.5876 21.181 27.6981 24.1434 28.883C26.6614 29.9198 27.1058 29.6236 27.6983 29.6236C28.2907 29.6236 29.4757 28.883 29.6238 28.2905C29.92 27.5499 29.92 26.9575 29.7719 26.9575C29.6238 26.2169 29.3275 26.2169 29.0313 26.0688Z" fill="#00B346"/>
</g>
</svg>
