<svg width="18" height="18" viewBox="0 0 18 18" fill="none" xmlns="http://www.w3.org/2000/svg">
<g id="Vector">
<path id="Vector_2" d="M14.0722 8.44178L8.40158 14.1124C7.2814 15.2326 5.42116 15.3662 4.1403 14.2997C2.67408 13.08 2.54218 10.9436 3.79636 9.6894L10.421 3.06475C11.1231 2.36262 12.2914 2.25522 13.0946 2.91909C14.0214 3.68509 14.1052 5.02315 13.3174 5.81103L7.68963 11.4388C7.39484 11.7336 6.89973 11.7208 6.58939 11.4105C6.27904 11.1001 6.26631 10.605 6.5611 10.3102L11.2509 5.62046C11.4706 5.40071 11.461 5.02663 11.2297 4.79528C10.9983 4.56393 10.6242 4.55431 10.4045 4.77406L5.78974 9.38881C5.08762 10.0909 4.98021 11.2592 5.64408 12.0624C6.41008 12.9892 7.74814 13.073 8.53602 12.2852L14.0726 6.74854C15.1928 5.62835 15.3264 3.76812 14.2599 2.48726C13.0346 1.01539 10.9038 0.889138 9.64965 2.14332L3.07324 8.71973C1.53499 10.258 1.34249 12.8204 2.81157 14.5789C4.50721 16.5961 7.43102 16.7757 9.15686 15.0499L14.9186 9.28817C15.1383 9.06842 15.1287 8.69434 14.8974 8.46299C14.666 8.23164 14.2919 8.22203 14.0722 8.44178Z" fill="white"/>
</g>
</svg>
