<svg width="24" height="24" viewBox="0 0 24 24" fill="none" xmlns="http://www.w3.org/2000/svg">
<g id="attachment" clip-path="url(#clip0_1_2393)">
<path id="Vector" d="M4.92769 12.9142L13.0594 4.78247C14.6221 3.21977 17.1536 3.21977 18.7163 4.78247C20.279 6.34518 20.279 8.87662 18.7163 10.4393L9.87743 19.2782C8.90163 20.254 7.31771 20.254 6.3419 19.2782C5.36609 18.3024 5.36609 16.7184 6.3419 15.7426L13.7665 8.31801C14.1554 7.9291 14.7918 7.9291 15.1807 8.31801C15.5696 8.70692 15.5696 9.34331 15.1807 9.73222L8.46322 16.4497L9.52388 17.5104L16.2414 10.7929C17.2172 9.81707 17.2172 8.23315 16.2414 7.25735C15.2656 6.28154 13.6817 6.28154 12.7059 7.25735L5.28124 14.682C3.71853 16.2447 3.71853 18.7761 5.28124 20.3388C6.84395 21.9015 9.37539 21.9015 10.9381 20.3388L19.7769 11.5C21.9265 9.35038 21.9265 5.87142 19.7769 3.72181C17.6273 1.57221 14.1484 1.57221 11.9988 3.72181L3.86703 11.8535L4.92769 12.9142Z" fill="#3445DE"/>
</g>
<defs>
<clipPath id="clip0_1_2393">
<rect width="24" height="24" fill="white" transform="translate(0 24) rotate(-90)"/>
</clipPath>
</defs>
</svg>
