<svg width="32" height="32" viewBox="0 0 32 32" fill="none" xmlns="http://www.w3.org/2000/svg">
<path fill-rule="evenodd" clip-rule="evenodd" d="M16.0035 0C24.8409 0 32 7.16376 32 15.9965C32 24.8362 24.8409 32 16.0035 32C7.16619 32 0 24.8362 0 15.9965C0 7.16376 7.16619 0 16.0035 0ZM9.89245 23.6482V22.3752H20.84C21.541 22.3752 22.1146 22.9481 22.1146 23.6482V24.9211H11.1671C10.466 24.9211 9.89245 24.3483 9.89245 23.6482ZM17.8447 15.063C17.2852 14.872 16.3788 14.7306 15.7911 14.7306C14.6935 14.7306 13.4543 15.1408 13.4543 16.1803C13.4543 17.2694 14.5094 17.5169 15.6849 17.4179C17.0728 17.3048 17.8447 16.4773 17.8447 15.063ZM9.26223 16.6259C9.26223 15.7277 9.51007 14.9428 10.0128 14.2568C10.5085 13.5779 11.2025 13.0404 12.0876 12.6515C12.9728 12.2625 13.9783 12.0716 15.1113 12.0716C15.6495 12.0716 16.1522 12.114 16.6196 12.1989C17.094 12.2838 17.5048 12.4181 17.8447 12.5878V12.1777C17.8447 11.5624 17.6605 11.1098 17.2923 10.8128C16.9241 10.5158 16.3222 10.3744 15.5008 10.3744C12.1938 10.3744 11.7265 12.9485 9.87829 8.80442C10.7918 8.21746 11.7477 7.78608 12.7533 7.5032C13.7588 7.22033 14.8422 7.0789 15.9894 7.0789C18.1421 7.0789 19.7991 7.55271 20.9816 8.50033C22.1571 9.44088 22.7449 10.8411 22.7449 12.7081V20.8124C22.6811 20.8194 22.6174 20.8265 22.5537 20.8336C22.1996 20.8831 21.888 20.9043 21.6119 20.9043C20.7338 20.9043 20.0682 20.7417 19.615 20.4234C19.1547 20.1052 18.8573 19.6385 18.7227 19.0232L18.6165 18.5352C18.0217 19.3061 17.3206 19.893 16.5346 20.2961C15.7415 20.6992 14.8989 20.9043 14.0066 20.9043C13.1144 20.9043 12.3071 20.7134 11.5849 20.3456C10.8626 19.9779 10.2961 19.4617 9.87829 18.811C9.46758 18.1604 9.26223 17.432 9.26223 16.6259Z" fill="#00B346"/>
</svg>
