<svg width="48" height="48" viewBox="0 0 48 48" fill="none" xmlns="http://www.w3.org/2000/svg">
<g id="instagram">
<path id="bg" d="M39.9919 0H7.4059C3.31574 0 0 3.31574 0 7.4059V39.9919C0 44.082 3.31574 47.3978 7.4059 47.3978H39.9919C44.082 47.3978 47.3978 44.082 47.3978 39.9919V7.4059C47.3978 3.31574 44.082 0 39.9919 0Z" fill="#F8F8F8"/>
<g id="instagram_2">
<path d="M23.6981 13.627C26.9567 13.627 27.401 13.627 28.7341 13.627C29.919 13.627 30.5115 13.9233 30.9559 14.0714C31.5483 14.3676 31.9927 14.5158 32.4371 14.9601C32.8814 15.4045 33.1776 15.8488 33.3258 16.4413C33.4739 16.8856 33.622 17.4781 33.7701 18.6631C33.7701 19.9961 33.7701 20.2924 33.7701 23.6991C33.7701 27.1058 33.7701 27.402 33.7701 28.7351C33.7701 29.92 33.4739 30.5125 33.3258 30.9569C33.0295 31.5493 32.8814 31.9937 32.4371 32.438C31.9927 32.8824 31.5483 33.1786 30.9559 33.3267C30.5115 33.4749 29.919 33.623 28.7341 33.7711C27.401 33.7711 27.1048 33.7711 23.6981 33.7711C20.2914 33.7711 19.9951 33.7711 18.6621 33.7711C17.4771 33.7711 16.8847 33.4749 16.4403 33.3267C15.8478 33.0305 15.4035 32.8824 14.9591 32.438C14.5148 31.9937 14.2185 31.5493 14.0704 30.9569C13.9223 30.5125 13.7742 29.92 13.6261 28.7351C13.6261 27.402 13.6261 27.1058 13.6261 23.6991C13.6261 20.2924 13.6261 19.9961 13.6261 18.6631C13.6261 17.4781 13.9223 16.8856 14.0704 16.4413C14.3667 15.8488 14.5148 15.4045 14.9591 14.9601C15.4035 14.5158 15.8478 14.2195 16.4403 14.0714C16.8847 13.9233 17.4771 13.7752 18.6621 13.627C19.9951 13.627 20.4395 13.627 23.6981 13.627ZM23.6981 11.4053C20.2914 11.4053 19.9951 11.4053 18.6621 11.4053C17.329 11.4053 16.4403 11.7015 15.6997 11.9977C14.9591 12.294 14.2185 12.7383 13.4779 13.4789C12.7374 14.2195 12.4411 14.812 11.9968 15.7007C11.7005 16.4413 11.5524 17.33 11.4043 18.6631C11.4043 19.9961 11.4043 20.4405 11.4043 23.6991C11.4043 27.1058 11.4043 27.402 11.4043 28.7351C11.4043 30.0681 11.7005 30.9569 11.9968 31.6974C12.293 32.438 12.7374 33.1786 13.4779 33.9192C14.2185 34.6598 14.811 34.956 15.6997 35.4004C16.4403 35.6966 17.329 35.8447 18.6621 35.9929C19.9951 35.9929 20.4395 35.9929 23.6981 35.9929C26.9567 35.9929 27.401 35.9929 28.7341 35.9929C30.0672 35.9929 30.9559 35.6966 31.6965 35.4004C32.4371 35.1042 33.1776 34.6598 33.9182 33.9192C34.6588 33.1786 34.9551 32.5861 35.3994 31.6974C35.6957 30.9569 35.8438 30.0681 35.9919 28.7351C35.9919 27.402 35.9919 26.9577 35.9919 23.6991C35.9919 20.4405 35.9919 19.9961 35.9919 18.6631C35.9919 17.33 35.6957 16.4413 35.3994 15.7007C35.1032 14.9601 34.6588 14.2195 33.9182 13.4789C33.1776 12.7383 32.5852 12.4421 31.6965 11.9977C30.9559 11.7015 30.0672 11.5534 28.7341 11.4053C27.401 11.4053 27.1048 11.4053 23.6981 11.4053Z" fill="#00B346"/>
<path d="M23.6981 17.33C20.1433 17.33 17.329 20.1442 17.329 23.6991C17.329 27.2539 20.1433 30.0681 23.6981 30.0681C27.2529 30.0681 30.0672 27.2539 30.0672 23.6991C30.0672 20.1442 27.2529 17.33 23.6981 17.33ZM23.6981 27.8464C21.4763 27.8464 19.5508 26.069 19.5508 23.6991C19.5508 21.4773 21.3282 19.5518 23.6981 19.5518C25.9199 19.5518 27.8454 21.3292 27.8454 23.6991C27.8454 25.9208 25.9199 27.8464 23.6981 27.8464Z" fill="#00B346"/>
<path d="M30.2153 18.6631C31.0333 18.6631 31.6965 17.9999 31.6965 17.1819C31.6965 16.3638 31.0333 15.7007 30.2153 15.7007C29.3973 15.7007 28.7341 16.3638 28.7341 17.1819C28.7341 17.9999 29.3973 18.6631 30.2153 18.6631Z" fill="#00B346"/>
</g>
</g>
</svg>
