<svg width="30" height="30" viewBox="0 0 30 30" fill="none" xmlns="http://www.w3.org/2000/svg">
<path d="M25.3125 0H4.6875C2.09867 0 0 2.09867 0 4.6875V25.3125C0 27.9013 2.09867 30 4.6875 30H25.3125C27.9013 30 30 27.9013 30 25.3125V4.6875C30 2.09867 27.9013 0 25.3125 0Z" fill="#00B346"/>
<path d="M15 8.60965C17.0674 8.60965 17.3494 8.60965 18.1951 8.60965C18.9469 8.60965 19.3228 8.7976 19.6048 8.89158C19.9807 9.07953 20.2626 9.17351 20.5445 9.45543C20.8265 9.73736 21.0144 10.0193 21.1084 10.3952C21.2024 10.6771 21.2963 11.053 21.3903 11.8048C21.3903 12.6506 21.3903 12.8386 21.3903 15C21.3903 17.1615 21.3903 17.3494 21.3903 18.1952C21.3903 18.947 21.2024 19.3229 21.1084 19.6048C20.9204 19.9807 20.8265 20.2627 20.5445 20.5446C20.2626 20.8265 19.9807 21.0145 19.6048 21.1084C19.3228 21.2024 18.9469 21.2964 18.1951 21.3904C17.3494 21.3904 17.1614 21.3904 15 21.3904C12.8385 21.3904 12.6506 21.3904 11.8048 21.3904C11.053 21.3904 10.6771 21.2024 10.3951 21.1084C10.0192 20.9205 9.7373 20.8265 9.45537 20.5446C9.17345 20.2627 8.98549 19.9807 8.89152 19.6048C8.79754 19.3229 8.70357 18.947 8.60959 18.1952C8.60959 17.3494 8.60959 17.1615 8.60959 15C8.60959 12.8386 8.60959 12.6506 8.60959 11.8048C8.60959 11.053 8.79754 10.6771 8.89152 10.3952C9.07947 10.0193 9.17345 9.73736 9.45537 9.45543C9.7373 9.17351 10.0192 8.98555 10.3951 8.89158C10.6771 8.7976 11.053 8.70363 11.8048 8.60965C12.6506 8.60965 12.9325 8.60965 15 8.60965ZM15 7.20001C12.8385 7.20001 12.6506 7.20001 11.8048 7.20001C10.959 7.20001 10.3951 7.38796 9.92525 7.57592C9.45537 7.76387 8.98549 8.0458 8.51561 8.51568C8.04573 8.98556 7.85778 9.36146 7.57586 9.92531C7.3879 10.3952 7.29393 10.959 7.19995 11.8048C7.19995 12.6506 7.19995 12.9325 7.19995 15C7.19995 17.1615 7.19995 17.3494 7.19995 18.1952C7.19995 19.041 7.3879 19.6048 7.57586 20.0747C7.76381 20.5446 8.04573 21.0145 8.51561 21.4844C8.98549 21.9542 9.3614 22.1422 9.92525 22.4241C10.3951 22.6121 10.959 22.706 11.8048 22.8C12.6506 22.8 12.9325 22.8 15 22.8C17.0674 22.8 17.3494 22.8 18.1951 22.8C19.0409 22.8 19.6048 22.6121 20.0747 22.4241C20.5445 22.2362 21.0144 21.9542 21.4843 21.4844C21.9542 21.0145 22.1421 20.6386 22.424 20.0747C22.612 19.6048 22.706 19.041 22.8 18.1952C22.8 17.3494 22.8 17.0675 22.8 15C22.8 12.9325 22.8 12.6506 22.8 11.8048C22.8 10.959 22.612 10.3952 22.424 9.92531C22.2361 9.45543 21.9542 8.98556 21.4843 8.51568C21.0144 8.0458 20.6385 7.85784 20.0747 7.57592C19.6048 7.38796 19.0409 7.29399 18.1951 7.20001C17.3494 7.20001 17.1614 7.20001 15 7.20001Z" fill="#FEFBF2"/>
<path d="M15 10.959C12.7445 10.959 10.959 12.7446 10.959 15C10.959 17.2554 12.7445 19.041 15 19.041C17.2554 19.041 19.0409 17.2554 19.0409 15C19.0409 12.7446 17.2554 10.959 15 10.959ZM15 17.6313C13.5903 17.6313 12.3686 16.5036 12.3686 15C12.3686 13.5904 13.4963 12.3687 15 12.3687C16.4096 12.3687 17.6313 13.4964 17.6313 15C17.6313 16.4097 16.4096 17.6313 15 17.6313Z" fill="#FEFBF2"/>
<path d="M19.1349 11.8048C19.6539 11.8048 20.0747 11.3841 20.0747 10.8651C20.0747 10.3461 19.6539 9.92531 19.1349 9.92531C18.6159 9.92531 18.1951 10.3461 18.1951 10.8651C18.1951 11.3841 18.6159 11.8048 19.1349 11.8048Z" fill="#FEFBF2"/>
</svg>
