<svg width="30" height="30" viewBox="0 0 30 30" fill="none" xmlns="http://www.w3.org/2000/svg">
<path d="M25.3125 0H4.6875C2.09867 0 0 2.09867 0 4.6875V25.3125C0 27.9013 2.09867 30 4.6875 30H25.3125C27.9013 30 30 27.9013 30 25.3125V4.6875C30 2.09867 27.9013 0 25.3125 0Z" fill="#00B346"/>
<path fill-rule="evenodd" clip-rule="evenodd" d="M8.27237 14.0825C12.46 12.2197 15.2523 10.9916 16.6495 10.3982C20.6387 8.70411 21.4676 8.40982 22.0079 8.4001C22.1268 8.39796 22.3925 8.42803 22.5646 8.57062C22.7099 8.69102 22.7499 8.85366 22.769 8.96781C22.7881 9.08196 22.812 9.342 22.793 9.54519C22.5768 11.8643 21.6414 17.4923 21.1656 20.0898C20.9642 21.1889 20.5677 21.5574 20.1839 21.5935C19.3497 21.6718 18.7163 21.0306 17.9083 20.4898C16.644 19.6436 15.9298 19.1169 14.7026 18.2912C13.2844 17.3369 14.2038 16.8125 15.012 15.9553C15.2235 15.731 18.8989 12.3177 18.9701 12.008C18.979 11.9693 18.9872 11.8249 18.9032 11.7487C18.8193 11.6725 18.6953 11.6985 18.6058 11.7193C18.479 11.7487 16.4593 13.1117 12.5467 15.8083C11.9735 16.2102 11.4542 16.4061 10.989 16.3958C10.4761 16.3845 9.48947 16.0997 8.75603 15.8563C7.85645 15.5577 7.14147 15.3999 7.20373 14.8928C7.23616 14.6287 7.59237 14.3586 8.27237 14.0825Z" fill="#FEFBF2"/>
</svg>
