<svg width="21" height="21" viewBox="0 0 21 21" fill="none" xmlns="http://www.w3.org/2000/svg">
<g clip-path="url(#clip0_1_2917)">
<path d="M10.5 17.0625C3.63021 17.0625 0.224273 11.0736 0.0826875 10.8188C-0.0275625 10.6204 -0.0275625 10.3794 0.0826875 10.1811C0.224273 9.92644 3.63021 3.9375 10.5 3.9375C17.3698 3.9375 20.7757 9.92644 20.9173 10.1812C21.0276 10.3796 21.0276 10.6206 20.9173 10.8189C20.7757 11.0736 17.3698 17.0625 10.5 17.0625ZM1.42849 10.499C2.2091 11.6821 5.27395 15.75 10.5 15.75C15.7426 15.75 18.7939 11.6854 19.5715 10.501C18.7909 9.31793 15.726 5.25 10.5 5.25C5.25738 5.25 2.20615 9.31465 1.42849 10.499ZM10.5 14.4375C8.3288 14.4375 6.5625 12.6712 6.5625 10.5C6.5625 8.3288 8.3288 6.5625 10.5 6.5625C12.6712 6.5625 14.4375 8.3288 14.4375 10.5C14.4375 12.6712 12.6712 14.4375 10.5 14.4375ZM10.5 7.875C9.05264 7.875 7.875 9.05264 7.875 10.5C7.875 11.9474 9.05264 13.125 10.5 13.125C11.9474 13.125 13.125 11.9474 13.125 10.5C13.125 9.05264 11.9474 7.875 10.5 7.875Z" fill="#00B346"/>
</g>
<defs>
<clipPath id="clip0_1_2917">
<rect width="21" height="21" fill="white"/>
</clipPath>
</defs>
</svg>
